<mxfile host="app.diagrams.net" modified="2024-06-25T09:50:43.274Z" agent="Mozilla/5.0 (Windows NT 10.0; Win64; x64) AppleWebKit/537.36 (KHTML, like Gecko) Chrome/122.0.0.0 Safari/537.36" etag="RI9GZeOZPFq-JTeZlF2t" version="24.6.2" type="device">
  <diagram name="Page-1" id="ZFtyhXFOlL-bYsPkhyps">
    <mxGraphModel dx="1404" dy="1642" grid="1" gridSize="10" guides="1" tooltips="1" connect="1" arrows="1" fold="1" page="1" pageScale="1" pageWidth="850" pageHeight="1100" math="0" shadow="0">
      <root>
        <mxCell id="0" />
        <mxCell id="1" parent="0" />
        <mxCell id="AdHgcvFWVIwuHT3nMgFi-3" value="" style="group" parent="1" vertex="1" connectable="0">
          <mxGeometry x="80" y="-820" width="110" height="50" as="geometry" />
        </mxCell>
        <mxCell id="AdHgcvFWVIwuHT3nMgFi-1" value="q0" style="ellipse;whiteSpace=wrap;html=1;aspect=fixed;" parent="AdHgcvFWVIwuHT3nMgFi-3" vertex="1">
          <mxGeometry x="60" width="50" height="50" as="geometry" />
        </mxCell>
        <mxCell id="AdHgcvFWVIwuHT3nMgFi-2" value="" style="endArrow=classic;html=1;rounded=0;entryX=0;entryY=0.5;entryDx=0;entryDy=0;" parent="AdHgcvFWVIwuHT3nMgFi-3" target="AdHgcvFWVIwuHT3nMgFi-1" edge="1">
          <mxGeometry width="50" height="50" relative="1" as="geometry">
            <mxPoint y="25" as="sourcePoint" />
            <mxPoint x="-20" y="10" as="targetPoint" />
          </mxGeometry>
        </mxCell>
        <mxCell id="AdHgcvFWVIwuHT3nMgFi-4" value="Start" style="text;html=1;align=center;verticalAlign=middle;whiteSpace=wrap;rounded=0;" parent="AdHgcvFWVIwuHT3nMgFi-3" vertex="1">
          <mxGeometry width="60" height="30" as="geometry" />
        </mxCell>
        <mxCell id="AdHgcvFWVIwuHT3nMgFi-13" value="" style="group" parent="1" vertex="1" connectable="0">
          <mxGeometry x="280" y="-660" width="50" height="50" as="geometry" />
        </mxCell>
        <mxCell id="AdHgcvFWVIwuHT3nMgFi-9" value="q5" style="ellipse;whiteSpace=wrap;html=1;aspect=fixed;" parent="AdHgcvFWVIwuHT3nMgFi-13" vertex="1">
          <mxGeometry width="50" height="50" as="geometry" />
        </mxCell>
        <mxCell id="AdHgcvFWVIwuHT3nMgFi-12" value="q5" style="ellipse;whiteSpace=wrap;html=1;aspect=fixed;" parent="AdHgcvFWVIwuHT3nMgFi-13" vertex="1">
          <mxGeometry x="5" y="5" width="40" height="40" as="geometry" />
        </mxCell>
        <mxCell id="AdHgcvFWVIwuHT3nMgFi-14" value="0,B/R" style="text;html=1;align=center;verticalAlign=middle;whiteSpace=wrap;rounded=0;" parent="1" vertex="1">
          <mxGeometry x="200" y="-800" width="60" height="30" as="geometry" />
        </mxCell>
        <mxCell id="AdHgcvFWVIwuHT3nMgFi-15" value="" style="endArrow=classic;html=1;rounded=0;exitX=1;exitY=0.5;exitDx=0;exitDy=0;entryX=0;entryY=0.5;entryDx=0;entryDy=0;" parent="1" source="AdHgcvFWVIwuHT3nMgFi-1" target="AdHgcvFWVIwuHT3nMgFi-16" edge="1">
          <mxGeometry width="50" height="50" relative="1" as="geometry">
            <mxPoint x="240" y="-830" as="sourcePoint" />
            <mxPoint x="280" y="-795" as="targetPoint" />
          </mxGeometry>
        </mxCell>
        <mxCell id="AdHgcvFWVIwuHT3nMgFi-16" value="q1" style="ellipse;whiteSpace=wrap;html=1;aspect=fixed;" parent="1" vertex="1">
          <mxGeometry x="280" y="-820" width="50" height="50" as="geometry" />
        </mxCell>
        <mxCell id="AdHgcvFWVIwuHT3nMgFi-18" value="" style="endArrow=classic;html=1;rounded=0;exitX=1;exitY=0.5;exitDx=0;exitDy=0;" parent="1" source="AdHgcvFWVIwuHT3nMgFi-16" edge="1">
          <mxGeometry width="50" height="50" relative="1" as="geometry">
            <mxPoint x="350" y="-800" as="sourcePoint" />
            <mxPoint x="410" y="-795" as="targetPoint" />
          </mxGeometry>
        </mxCell>
        <mxCell id="AdHgcvFWVIwuHT3nMgFi-20" value="q2" style="ellipse;whiteSpace=wrap;html=1;aspect=fixed;" parent="1" vertex="1">
          <mxGeometry x="410" y="-820" width="50" height="50" as="geometry" />
        </mxCell>
        <mxCell id="AdHgcvFWVIwuHT3nMgFi-21" value="q3" style="ellipse;whiteSpace=wrap;html=1;aspect=fixed;" parent="1" vertex="1">
          <mxGeometry x="530" y="-820" width="50" height="50" as="geometry" />
        </mxCell>
        <mxCell id="AdHgcvFWVIwuHT3nMgFi-22" value="q4" style="ellipse;whiteSpace=wrap;html=1;aspect=fixed;" parent="1" vertex="1">
          <mxGeometry x="530" y="-710" width="50" height="50" as="geometry" />
        </mxCell>
        <mxCell id="AdHgcvFWVIwuHT3nMgFi-23" value="0,0/R" style="text;html=1;align=center;verticalAlign=middle;whiteSpace=wrap;rounded=0;" parent="1" vertex="1">
          <mxGeometry x="275" y="-880" width="60" height="30" as="geometry" />
        </mxCell>
        <mxCell id="AdHgcvFWVIwuHT3nMgFi-24" value="C,B/R" style="text;html=1;align=center;verticalAlign=middle;whiteSpace=wrap;rounded=0;" parent="1" vertex="1">
          <mxGeometry x="170" y="-700" width="60" height="30" as="geometry" />
        </mxCell>
        <mxCell id="AdHgcvFWVIwuHT3nMgFi-25" value="" style="endArrow=classic;html=1;rounded=0;exitX=0.5;exitY=1;exitDx=0;exitDy=0;entryX=0;entryY=0.5;entryDx=0;entryDy=0;" parent="1" source="AdHgcvFWVIwuHT3nMgFi-1" target="AdHgcvFWVIwuHT3nMgFi-9" edge="1">
          <mxGeometry width="50" height="50" relative="1" as="geometry">
            <mxPoint x="250" y="-710" as="sourcePoint" />
            <mxPoint x="300" y="-760" as="targetPoint" />
          </mxGeometry>
        </mxCell>
        <mxCell id="AdHgcvFWVIwuHT3nMgFi-26" value="" style="endArrow=classic;html=1;rounded=0;exitX=0;exitY=0;exitDx=0;exitDy=0;entryX=1;entryY=0;entryDx=0;entryDy=0;" parent="1" source="AdHgcvFWVIwuHT3nMgFi-16" target="AdHgcvFWVIwuHT3nMgFi-16" edge="1">
          <mxGeometry width="50" height="50" relative="1" as="geometry">
            <mxPoint x="300" y="-830" as="sourcePoint" />
            <mxPoint x="340" y="-860" as="targetPoint" />
            <Array as="points">
              <mxPoint x="305" y="-850" />
            </Array>
          </mxGeometry>
        </mxCell>
        <mxCell id="AdHgcvFWVIwuHT3nMgFi-27" value="C,C/R" style="text;html=1;align=center;verticalAlign=middle;whiteSpace=wrap;rounded=0;" parent="1" vertex="1">
          <mxGeometry x="335" y="-800" width="60" height="30" as="geometry" />
        </mxCell>
        <mxCell id="AdHgcvFWVIwuHT3nMgFi-28" value="" style="endArrow=classic;html=1;rounded=0;exitX=0;exitY=0;exitDx=0;exitDy=0;entryX=1;entryY=0;entryDx=0;entryDy=0;" parent="1" edge="1">
          <mxGeometry width="50" height="50" relative="1" as="geometry">
            <mxPoint x="417" y="-813" as="sourcePoint" />
            <mxPoint x="453" y="-813" as="targetPoint" />
            <Array as="points">
              <mxPoint x="435" y="-850" />
            </Array>
          </mxGeometry>
        </mxCell>
        <mxCell id="AdHgcvFWVIwuHT3nMgFi-29" value="0,0/R" style="text;html=1;align=center;verticalAlign=middle;whiteSpace=wrap;rounded=0;" parent="1" vertex="1">
          <mxGeometry x="405" y="-880" width="60" height="30" as="geometry" />
        </mxCell>
        <mxCell id="AdHgcvFWVIwuHT3nMgFi-30" value="" style="endArrow=classic;html=1;rounded=0;entryX=0;entryY=0.5;entryDx=0;entryDy=0;exitX=1;exitY=0.5;exitDx=0;exitDy=0;" parent="1" source="AdHgcvFWVIwuHT3nMgFi-20" target="AdHgcvFWVIwuHT3nMgFi-21" edge="1">
          <mxGeometry width="50" height="50" relative="1" as="geometry">
            <mxPoint x="410" y="-710" as="sourcePoint" />
            <mxPoint x="460" y="-760" as="targetPoint" />
          </mxGeometry>
        </mxCell>
        <mxCell id="AdHgcvFWVIwuHT3nMgFi-31" value="0,0/L" style="text;html=1;align=center;verticalAlign=middle;whiteSpace=wrap;rounded=0;" parent="1" vertex="1">
          <mxGeometry x="525" y="-880" width="60" height="30" as="geometry" />
        </mxCell>
        <mxCell id="AdHgcvFWVIwuHT3nMgFi-32" value="" style="endArrow=classic;html=1;rounded=0;exitX=0;exitY=0;exitDx=0;exitDy=0;entryX=1;entryY=0;entryDx=0;entryDy=0;" parent="1" edge="1">
          <mxGeometry width="50" height="50" relative="1" as="geometry">
            <mxPoint x="537" y="-813" as="sourcePoint" />
            <mxPoint x="573" y="-813" as="targetPoint" />
            <Array as="points">
              <mxPoint x="555" y="-850" />
            </Array>
          </mxGeometry>
        </mxCell>
        <mxCell id="AdHgcvFWVIwuHT3nMgFi-33" value="" style="endArrow=classic;html=1;rounded=0;exitX=0.5;exitY=1;exitDx=0;exitDy=0;entryX=0.5;entryY=0;entryDx=0;entryDy=0;" parent="1" source="AdHgcvFWVIwuHT3nMgFi-21" target="AdHgcvFWVIwuHT3nMgFi-22" edge="1">
          <mxGeometry width="50" height="50" relative="1" as="geometry">
            <mxPoint x="430" y="-600" as="sourcePoint" />
            <mxPoint x="480" y="-650" as="targetPoint" />
          </mxGeometry>
        </mxCell>
        <mxCell id="AdHgcvFWVIwuHT3nMgFi-34" value="C,C/L" style="text;html=1;align=center;verticalAlign=middle;whiteSpace=wrap;rounded=0;" parent="1" vertex="1">
          <mxGeometry x="500" y="-760" width="60" height="30" as="geometry" />
        </mxCell>
        <mxCell id="AdHgcvFWVIwuHT3nMgFi-35" value="" style="endArrow=classic;html=1;rounded=0;exitX=0;exitY=1;exitDx=0;exitDy=0;entryX=1;entryY=1;entryDx=0;entryDy=0;" parent="1" source="AdHgcvFWVIwuHT3nMgFi-22" target="AdHgcvFWVIwuHT3nMgFi-22" edge="1">
          <mxGeometry width="50" height="50" relative="1" as="geometry">
            <mxPoint x="530" y="-583" as="sourcePoint" />
            <mxPoint x="566" y="-583" as="targetPoint" />
            <Array as="points">
              <mxPoint x="555" y="-630" />
            </Array>
          </mxGeometry>
        </mxCell>
        <mxCell id="AdHgcvFWVIwuHT3nMgFi-36" value="B,B/R" style="text;html=1;align=center;verticalAlign=middle;whiteSpace=wrap;rounded=0;" parent="1" vertex="1">
          <mxGeometry x="350" y="-720" width="60" height="30" as="geometry" />
        </mxCell>
        <mxCell id="AdHgcvFWVIwuHT3nMgFi-37" value="0,0/L" style="text;html=1;align=center;verticalAlign=middle;whiteSpace=wrap;rounded=0;" parent="1" vertex="1">
          <mxGeometry x="530" y="-630" width="60" height="30" as="geometry" />
        </mxCell>
        <mxCell id="AdHgcvFWVIwuHT3nMgFi-38" value="" style="endArrow=classic;html=1;rounded=0;exitX=0;exitY=0.5;exitDx=0;exitDy=0;entryX=1;entryY=1;entryDx=0;entryDy=0;" parent="1" source="AdHgcvFWVIwuHT3nMgFi-22" target="AdHgcvFWVIwuHT3nMgFi-1" edge="1">
          <mxGeometry width="50" height="50" relative="1" as="geometry">
            <mxPoint x="340" y="-710" as="sourcePoint" />
            <mxPoint x="390" y="-760" as="targetPoint" />
          </mxGeometry>
        </mxCell>
        <mxCell id="AdHgcvFWVIwuHT3nMgFi-39" value="" style="group" parent="1" vertex="1" connectable="0">
          <mxGeometry x="80" y="-480" width="110" height="50" as="geometry" />
        </mxCell>
        <mxCell id="AdHgcvFWVIwuHT3nMgFi-40" value="q0" style="ellipse;whiteSpace=wrap;html=1;aspect=fixed;" parent="AdHgcvFWVIwuHT3nMgFi-39" vertex="1">
          <mxGeometry x="60" width="50" height="50" as="geometry" />
        </mxCell>
        <mxCell id="AdHgcvFWVIwuHT3nMgFi-41" value="" style="endArrow=classic;html=1;rounded=0;entryX=0;entryY=0.5;entryDx=0;entryDy=0;" parent="AdHgcvFWVIwuHT3nMgFi-39" target="AdHgcvFWVIwuHT3nMgFi-40" edge="1">
          <mxGeometry width="50" height="50" relative="1" as="geometry">
            <mxPoint y="25" as="sourcePoint" />
            <mxPoint x="-20" y="10" as="targetPoint" />
          </mxGeometry>
        </mxCell>
        <mxCell id="AdHgcvFWVIwuHT3nMgFi-42" value="Start" style="text;html=1;align=center;verticalAlign=middle;whiteSpace=wrap;rounded=0;" parent="AdHgcvFWVIwuHT3nMgFi-39" vertex="1">
          <mxGeometry width="60" height="30" as="geometry" />
        </mxCell>
        <mxCell id="AdHgcvFWVIwuHT3nMgFi-45" value="q23" style="ellipse;whiteSpace=wrap;html=1;aspect=fixed;" parent="1" vertex="1">
          <mxGeometry x="769" y="-43" width="50" height="50" as="geometry" />
        </mxCell>
        <mxCell id="AdHgcvFWVIwuHT3nMgFi-46" value="q9" style="ellipse;whiteSpace=wrap;html=1;aspect=fixed;" parent="1" vertex="1">
          <mxGeometry x="996" y="-160" width="50" height="50" as="geometry" />
        </mxCell>
        <mxCell id="AdHgcvFWVIwuHT3nMgFi-47" value="q8" style="ellipse;whiteSpace=wrap;html=1;aspect=fixed;" parent="1" vertex="1">
          <mxGeometry x="995" y="-260" width="50" height="50" as="geometry" />
        </mxCell>
        <mxCell id="AdHgcvFWVIwuHT3nMgFi-48" value="q7" style="ellipse;whiteSpace=wrap;html=1;aspect=fixed;" parent="1" vertex="1">
          <mxGeometry x="996" y="-370" width="50" height="50" as="geometry" />
        </mxCell>
        <mxCell id="AdHgcvFWVIwuHT3nMgFi-49" value="q6" style="ellipse;whiteSpace=wrap;html=1;aspect=fixed;" parent="1" vertex="1">
          <mxGeometry x="995" y="-480" width="50" height="50" as="geometry" />
        </mxCell>
        <mxCell id="AdHgcvFWVIwuHT3nMgFi-50" value="q5" style="ellipse;whiteSpace=wrap;html=1;aspect=fixed;" parent="1" vertex="1">
          <mxGeometry x="850" y="-480" width="50" height="50" as="geometry" />
        </mxCell>
        <mxCell id="AdHgcvFWVIwuHT3nMgFi-51" value="q4" style="ellipse;whiteSpace=wrap;html=1;aspect=fixed;" parent="1" vertex="1">
          <mxGeometry x="700" y="-480" width="50" height="50" as="geometry" />
        </mxCell>
        <mxCell id="AdHgcvFWVIwuHT3nMgFi-52" value="q3" style="ellipse;whiteSpace=wrap;html=1;aspect=fixed;" parent="1" vertex="1">
          <mxGeometry x="560" y="-480" width="50" height="50" as="geometry" />
        </mxCell>
        <mxCell id="AdHgcvFWVIwuHT3nMgFi-53" value="q2" style="ellipse;whiteSpace=wrap;html=1;aspect=fixed;" parent="1" vertex="1">
          <mxGeometry x="385" y="-480" width="50" height="50" as="geometry" />
        </mxCell>
        <mxCell id="AdHgcvFWVIwuHT3nMgFi-61" value="q1" style="ellipse;whiteSpace=wrap;html=1;aspect=fixed;" parent="1" vertex="1">
          <mxGeometry x="260" y="-480" width="50" height="50" as="geometry" />
        </mxCell>
        <mxCell id="AdHgcvFWVIwuHT3nMgFi-63" value="q10" style="ellipse;whiteSpace=wrap;html=1;aspect=fixed;" parent="1" vertex="1">
          <mxGeometry x="996" y="-60" width="50" height="50" as="geometry" />
        </mxCell>
        <mxCell id="AdHgcvFWVIwuHT3nMgFi-64" value="q22" style="ellipse;whiteSpace=wrap;html=1;aspect=fixed;" parent="1" vertex="1">
          <mxGeometry x="200" y="-113" width="50" height="50" as="geometry" />
        </mxCell>
        <mxCell id="AdHgcvFWVIwuHT3nMgFi-69" value="q24" style="ellipse;whiteSpace=wrap;html=1;aspect=fixed;direction=south;" parent="1" vertex="1">
          <mxGeometry x="650" y="30" width="50" height="50" as="geometry" />
        </mxCell>
        <mxCell id="AdHgcvFWVIwuHT3nMgFi-72" value="" style="group" parent="1" vertex="1" connectable="0">
          <mxGeometry x="440" y="30" width="50" height="50" as="geometry" />
        </mxCell>
        <mxCell id="AdHgcvFWVIwuHT3nMgFi-71" value="" style="ellipse;whiteSpace=wrap;html=1;aspect=fixed;" parent="AdHgcvFWVIwuHT3nMgFi-72" vertex="1">
          <mxGeometry width="50" height="50" as="geometry" />
        </mxCell>
        <mxCell id="AdHgcvFWVIwuHT3nMgFi-70" value="q25" style="ellipse;whiteSpace=wrap;html=1;aspect=fixed;" parent="AdHgcvFWVIwuHT3nMgFi-72" vertex="1">
          <mxGeometry x="5" y="5" width="40" height="40" as="geometry" />
        </mxCell>
        <mxCell id="AdHgcvFWVIwuHT3nMgFi-73" value="" style="endArrow=classic;html=1;rounded=0;exitX=1;exitY=0.5;exitDx=0;exitDy=0;entryX=0;entryY=0.5;entryDx=0;entryDy=0;" parent="1" source="AdHgcvFWVIwuHT3nMgFi-40" target="AdHgcvFWVIwuHT3nMgFi-61" edge="1">
          <mxGeometry width="50" height="50" relative="1" as="geometry">
            <mxPoint x="315" y="-511.43" as="sourcePoint" />
            <mxPoint x="395" y="-511.43" as="targetPoint" />
          </mxGeometry>
        </mxCell>
        <mxCell id="AdHgcvFWVIwuHT3nMgFi-74" value="C,C/R" style="text;html=1;align=center;verticalAlign=middle;whiteSpace=wrap;rounded=0;" parent="1" vertex="1">
          <mxGeometry x="194" y="-455" width="60" height="30" as="geometry" />
        </mxCell>
        <mxCell id="AdHgcvFWVIwuHT3nMgFi-75" value="" style="endArrow=classic;html=1;rounded=0;exitX=1;exitY=0.5;exitDx=0;exitDy=0;entryX=0;entryY=0.5;entryDx=0;entryDy=0;" parent="1" source="AdHgcvFWVIwuHT3nMgFi-61" target="AdHgcvFWVIwuHT3nMgFi-53" edge="1">
          <mxGeometry width="50" height="50" relative="1" as="geometry">
            <mxPoint x="450" y="-520" as="sourcePoint" />
            <mxPoint x="500" y="-570" as="targetPoint" />
          </mxGeometry>
        </mxCell>
        <mxCell id="AdHgcvFWVIwuHT3nMgFi-76" value="0,B/L" style="text;html=1;align=center;verticalAlign=middle;whiteSpace=wrap;rounded=0;" parent="1" vertex="1">
          <mxGeometry x="320" y="-455" width="60" height="30" as="geometry" />
        </mxCell>
        <mxCell id="AdHgcvFWVIwuHT3nMgFi-85" value="" style="endArrow=classic;html=1;rounded=0;exitX=0;exitY=0;exitDx=0;exitDy=0;entryX=1;entryY=0;entryDx=0;entryDy=0;" parent="1" source="AdHgcvFWVIwuHT3nMgFi-53" target="AdHgcvFWVIwuHT3nMgFi-53" edge="1">
          <mxGeometry width="50" height="50" relative="1" as="geometry">
            <mxPoint x="274" y="-483" as="sourcePoint" />
            <mxPoint x="310" y="-483" as="targetPoint" />
            <Array as="points">
              <mxPoint x="410" y="-500" />
            </Array>
          </mxGeometry>
        </mxCell>
        <mxCell id="AdHgcvFWVIwuHT3nMgFi-89" value="" style="endArrow=classic;html=1;rounded=0;exitX=0;exitY=0;exitDx=0;exitDy=0;entryX=1;entryY=0;entryDx=0;entryDy=0;" parent="1" source="AdHgcvFWVIwuHT3nMgFi-52" target="AdHgcvFWVIwuHT3nMgFi-52" edge="1">
          <mxGeometry width="50" height="50" relative="1" as="geometry">
            <mxPoint x="567" y="-483" as="sourcePoint" />
            <mxPoint x="603" y="-483" as="targetPoint" />
            <Array as="points">
              <mxPoint x="585" y="-500" />
            </Array>
          </mxGeometry>
        </mxCell>
        <mxCell id="AdHgcvFWVIwuHT3nMgFi-91" value="X,X/R" style="text;html=1;align=center;verticalAlign=middle;whiteSpace=wrap;rounded=0;" parent="1" vertex="1">
          <mxGeometry x="555" y="-527.5" width="60" height="30" as="geometry" />
        </mxCell>
        <mxCell id="AdHgcvFWVIwuHT3nMgFi-92" value="C,C/R" style="text;html=1;align=center;verticalAlign=middle;whiteSpace=wrap;rounded=0;" parent="1" vertex="1">
          <mxGeometry x="625" y="-457" width="60" height="30" as="geometry" />
        </mxCell>
        <mxCell id="AdHgcvFWVIwuHT3nMgFi-94" value="" style="endArrow=classic;html=1;rounded=0;exitX=1;exitY=0.5;exitDx=0;exitDy=0;entryX=0;entryY=0.5;entryDx=0;entryDy=0;" parent="1" source="AdHgcvFWVIwuHT3nMgFi-52" target="AdHgcvFWVIwuHT3nMgFi-51" edge="1">
          <mxGeometry width="50" height="50" relative="1" as="geometry">
            <mxPoint x="450" y="-520" as="sourcePoint" />
            <mxPoint x="500" y="-570" as="targetPoint" />
          </mxGeometry>
        </mxCell>
        <mxCell id="AdHgcvFWVIwuHT3nMgFi-95" value="" style="endArrow=classic;html=1;rounded=0;exitX=0;exitY=0;exitDx=0;exitDy=0;entryX=1;entryY=0;entryDx=0;entryDy=0;" parent="1" source="AdHgcvFWVIwuHT3nMgFi-51" target="AdHgcvFWVIwuHT3nMgFi-51" edge="1">
          <mxGeometry width="50" height="50" relative="1" as="geometry">
            <mxPoint x="707" y="-497.5" as="sourcePoint" />
            <mxPoint x="743" y="-497.5" as="targetPoint" />
            <Array as="points">
              <mxPoint x="725" y="-500" />
            </Array>
          </mxGeometry>
        </mxCell>
        <mxCell id="AdHgcvFWVIwuHT3nMgFi-96" value="0,0/R" style="text;html=1;align=center;verticalAlign=middle;whiteSpace=wrap;rounded=0;" parent="1" vertex="1">
          <mxGeometry x="695" y="-527.5" width="60" height="30" as="geometry" />
        </mxCell>
        <mxCell id="AdHgcvFWVIwuHT3nMgFi-97" value="B,B/R" style="text;html=1;align=center;verticalAlign=middle;whiteSpace=wrap;rounded=0;" parent="1" vertex="1">
          <mxGeometry x="696" y="-545" width="60" height="30" as="geometry" />
        </mxCell>
        <mxCell id="AdHgcvFWVIwuHT3nMgFi-98" value="" style="endArrow=classic;html=1;rounded=0;exitX=1;exitY=0.5;exitDx=0;exitDy=0;entryX=0;entryY=0.5;entryDx=0;entryDy=0;" parent="1" source="AdHgcvFWVIwuHT3nMgFi-51" target="AdHgcvFWVIwuHT3nMgFi-50" edge="1">
          <mxGeometry width="50" height="50" relative="1" as="geometry">
            <mxPoint x="610" y="-520" as="sourcePoint" />
            <mxPoint x="660" y="-570" as="targetPoint" />
          </mxGeometry>
        </mxCell>
        <mxCell id="AdHgcvFWVIwuHT3nMgFi-99" value="B,0/L" style="text;html=1;align=center;verticalAlign=middle;whiteSpace=wrap;rounded=0;" parent="1" vertex="1">
          <mxGeometry x="910" y="-459" width="60" height="30" as="geometry" />
        </mxCell>
        <mxCell id="AdHgcvFWVIwuHT3nMgFi-100" value="C,C/R" style="text;html=1;align=center;verticalAlign=middle;whiteSpace=wrap;rounded=0;" parent="1" vertex="1">
          <mxGeometry x="769" y="-459" width="60" height="30" as="geometry" />
        </mxCell>
        <mxCell id="AdHgcvFWVIwuHT3nMgFi-101" value="0,0/R" style="text;html=1;align=center;verticalAlign=middle;whiteSpace=wrap;rounded=0;" parent="1" vertex="1">
          <mxGeometry x="850" y="-527.5" width="60" height="30" as="geometry" />
        </mxCell>
        <mxCell id="AdHgcvFWVIwuHT3nMgFi-102" value="" style="endArrow=classic;html=1;rounded=0;exitX=0;exitY=0;exitDx=0;exitDy=0;entryX=1;entryY=0;entryDx=0;entryDy=0;" parent="1" source="AdHgcvFWVIwuHT3nMgFi-50" target="AdHgcvFWVIwuHT3nMgFi-50" edge="1">
          <mxGeometry width="50" height="50" relative="1" as="geometry">
            <mxPoint x="860" y="-470.5" as="sourcePoint" />
            <mxPoint x="896" y="-470.5" as="targetPoint" />
            <Array as="points">
              <mxPoint x="878" y="-497.5" />
            </Array>
          </mxGeometry>
        </mxCell>
        <mxCell id="AdHgcvFWVIwuHT3nMgFi-103" value="" style="endArrow=classic;html=1;rounded=0;exitX=1;exitY=0.5;exitDx=0;exitDy=0;entryX=0;entryY=0.5;entryDx=0;entryDy=0;" parent="1" source="AdHgcvFWVIwuHT3nMgFi-50" target="AdHgcvFWVIwuHT3nMgFi-49" edge="1">
          <mxGeometry width="50" height="50" relative="1" as="geometry">
            <mxPoint x="950" y="-417" as="sourcePoint" />
            <mxPoint x="1000" y="-467" as="targetPoint" />
          </mxGeometry>
        </mxCell>
        <mxCell id="AdHgcvFWVIwuHT3nMgFi-104" value="" style="endArrow=classic;html=1;rounded=0;exitX=0;exitY=0;exitDx=0;exitDy=0;entryX=1;entryY=0;entryDx=0;entryDy=0;" parent="1" source="AdHgcvFWVIwuHT3nMgFi-49" target="AdHgcvFWVIwuHT3nMgFi-49" edge="1">
          <mxGeometry width="50" height="50" relative="1" as="geometry">
            <mxPoint x="997" y="-473" as="sourcePoint" />
            <mxPoint x="1033" y="-473" as="targetPoint" />
            <Array as="points">
              <mxPoint x="1018" y="-497.5" />
            </Array>
          </mxGeometry>
        </mxCell>
        <mxCell id="AdHgcvFWVIwuHT3nMgFi-105" value="0,0/L" style="text;html=1;align=center;verticalAlign=middle;whiteSpace=wrap;rounded=0;" parent="1" vertex="1">
          <mxGeometry x="990" y="-527.5" width="60" height="30" as="geometry" />
        </mxCell>
        <mxCell id="AdHgcvFWVIwuHT3nMgFi-106" value="C,C/L" style="text;html=1;align=center;verticalAlign=middle;whiteSpace=wrap;rounded=0;" parent="1" vertex="1">
          <mxGeometry x="990" y="-546" width="60" height="30" as="geometry" />
        </mxCell>
        <mxCell id="AdHgcvFWVIwuHT3nMgFi-107" value="B,B/L" style="text;html=1;align=center;verticalAlign=middle;whiteSpace=wrap;rounded=0;" parent="1" vertex="1">
          <mxGeometry x="991" y="-563" width="60" height="30" as="geometry" />
        </mxCell>
        <mxCell id="AdHgcvFWVIwuHT3nMgFi-108" value="" style="endArrow=classic;html=1;rounded=0;exitX=0.5;exitY=1;exitDx=0;exitDy=0;entryX=0.5;entryY=0;entryDx=0;entryDy=0;" parent="1" source="AdHgcvFWVIwuHT3nMgFi-49" target="AdHgcvFWVIwuHT3nMgFi-48" edge="1">
          <mxGeometry width="50" height="50" relative="1" as="geometry">
            <mxPoint x="870" y="-520" as="sourcePoint" />
            <mxPoint x="920" y="-570" as="targetPoint" />
          </mxGeometry>
        </mxCell>
        <mxCell id="AdHgcvFWVIwuHT3nMgFi-109" value="X,X/L" style="text;html=1;align=center;verticalAlign=middle;whiteSpace=wrap;rounded=0;" parent="1" vertex="1">
          <mxGeometry x="1017" y="-420" width="60" height="30" as="geometry" />
        </mxCell>
        <mxCell id="AdHgcvFWVIwuHT3nMgFi-110" value="" style="endArrow=classic;html=1;rounded=0;exitX=1;exitY=0;exitDx=0;exitDy=0;entryX=1;entryY=1;entryDx=0;entryDy=0;" parent="1" source="AdHgcvFWVIwuHT3nMgFi-48" target="AdHgcvFWVIwuHT3nMgFi-48" edge="1">
          <mxGeometry width="50" height="50" relative="1" as="geometry">
            <mxPoint x="1127" y="-490.5" as="sourcePoint" />
            <mxPoint x="1163" y="-490.5" as="targetPoint" />
            <Array as="points">
              <mxPoint x="1080" y="-350" />
            </Array>
          </mxGeometry>
        </mxCell>
        <mxCell id="AdHgcvFWVIwuHT3nMgFi-112" value="X,X/L" style="text;html=1;align=center;verticalAlign=middle;whiteSpace=wrap;rounded=0;" parent="1" vertex="1">
          <mxGeometry x="1077" y="-360" width="60" height="30" as="geometry" />
        </mxCell>
        <mxCell id="AdHgcvFWVIwuHT3nMgFi-114" value="" style="endArrow=classic;html=1;rounded=0;exitX=0;exitY=0;exitDx=0;exitDy=0;entryX=1;entryY=1;entryDx=0;entryDy=0;" parent="1" source="AdHgcvFWVIwuHT3nMgFi-48" target="AdHgcvFWVIwuHT3nMgFi-52" edge="1">
          <mxGeometry width="50" height="50" relative="1" as="geometry">
            <mxPoint x="820" y="-400" as="sourcePoint" />
            <mxPoint x="870" y="-450" as="targetPoint" />
          </mxGeometry>
        </mxCell>
        <mxCell id="AdHgcvFWVIwuHT3nMgFi-115" value="0,X/R" style="text;html=1;align=center;verticalAlign=middle;whiteSpace=wrap;rounded=0;" parent="1" vertex="1">
          <mxGeometry x="870" y="-410" width="60" height="30" as="geometry" />
        </mxCell>
        <mxCell id="AdHgcvFWVIwuHT3nMgFi-116" value="" style="endArrow=classic;html=1;rounded=0;exitX=0.5;exitY=1;exitDx=0;exitDy=0;entryX=0.5;entryY=0;entryDx=0;entryDy=0;" parent="1" source="AdHgcvFWVIwuHT3nMgFi-48" target="AdHgcvFWVIwuHT3nMgFi-47" edge="1">
          <mxGeometry width="50" height="50" relative="1" as="geometry">
            <mxPoint x="1010" y="-200" as="sourcePoint" />
            <mxPoint x="1060" y="-250" as="targetPoint" />
          </mxGeometry>
        </mxCell>
        <mxCell id="AdHgcvFWVIwuHT3nMgFi-117" value="B,B/R" style="text;html=1;align=center;verticalAlign=middle;whiteSpace=wrap;rounded=0;" parent="1" vertex="1">
          <mxGeometry x="1020" y="-300" width="60" height="30" as="geometry" />
        </mxCell>
        <mxCell id="AdHgcvFWVIwuHT3nMgFi-118" value="" style="endArrow=classic;html=1;rounded=0;exitX=1;exitY=0;exitDx=0;exitDy=0;entryX=1;entryY=1;entryDx=0;entryDy=0;" parent="1" source="AdHgcvFWVIwuHT3nMgFi-47" target="AdHgcvFWVIwuHT3nMgFi-47" edge="1">
          <mxGeometry width="50" height="50" relative="1" as="geometry">
            <mxPoint x="1039" y="-253" as="sourcePoint" />
            <mxPoint x="1039" y="-217" as="targetPoint" />
            <Array as="points">
              <mxPoint x="1080" y="-240" />
            </Array>
          </mxGeometry>
        </mxCell>
        <mxCell id="AdHgcvFWVIwuHT3nMgFi-119" value="C,C/L" style="text;html=1;align=center;verticalAlign=middle;whiteSpace=wrap;rounded=0;" parent="1" vertex="1">
          <mxGeometry x="1080" y="-260" width="60" height="30" as="geometry" />
        </mxCell>
        <mxCell id="AdHgcvFWVIwuHT3nMgFi-120" value="X,0/R" style="text;html=1;align=center;verticalAlign=middle;whiteSpace=wrap;rounded=0;" parent="1" vertex="1">
          <mxGeometry x="1080" y="-241" width="60" height="30" as="geometry" />
        </mxCell>
        <mxCell id="AdHgcvFWVIwuHT3nMgFi-121" value="0,X/R" style="text;html=1;align=center;verticalAlign=middle;whiteSpace=wrap;rounded=0;" parent="1" vertex="1">
          <mxGeometry x="1017" y="-200" width="60" height="30" as="geometry" />
        </mxCell>
        <mxCell id="AdHgcvFWVIwuHT3nMgFi-122" value="" style="endArrow=classic;html=1;rounded=0;exitX=0.5;exitY=1;exitDx=0;exitDy=0;entryX=0.5;entryY=0;entryDx=0;entryDy=0;" parent="1" source="AdHgcvFWVIwuHT3nMgFi-47" target="AdHgcvFWVIwuHT3nMgFi-46" edge="1">
          <mxGeometry width="50" height="50" relative="1" as="geometry">
            <mxPoint x="996" y="-160" as="sourcePoint" />
            <mxPoint x="1020" y="-150" as="targetPoint" />
          </mxGeometry>
        </mxCell>
        <mxCell id="AdHgcvFWVIwuHT3nMgFi-124" value="C,C/R" style="text;html=1;align=center;verticalAlign=middle;whiteSpace=wrap;rounded=0;" parent="1" vertex="1">
          <mxGeometry x="1020" y="-100" width="60" height="30" as="geometry" />
        </mxCell>
        <mxCell id="AdHgcvFWVIwuHT3nMgFi-125" value="" style="endArrow=classic;html=1;rounded=0;exitX=0.5;exitY=1;exitDx=0;exitDy=0;entryX=0.5;entryY=0;entryDx=0;entryDy=0;" parent="1" source="AdHgcvFWVIwuHT3nMgFi-46" target="AdHgcvFWVIwuHT3nMgFi-63" edge="1">
          <mxGeometry width="50" height="50" relative="1" as="geometry">
            <mxPoint x="810" y="-10" as="sourcePoint" />
            <mxPoint x="860" y="-60" as="targetPoint" />
          </mxGeometry>
        </mxCell>
        <mxCell id="AdHgcvFWVIwuHT3nMgFi-126" value="" style="endArrow=classic;html=1;rounded=0;exitX=1;exitY=0;exitDx=0;exitDy=0;entryX=1;entryY=1;entryDx=0;entryDy=0;" parent="1" source="AdHgcvFWVIwuHT3nMgFi-63" target="AdHgcvFWVIwuHT3nMgFi-63" edge="1">
          <mxGeometry width="50" height="50" relative="1" as="geometry">
            <mxPoint x="1060" y="-46" as="sourcePoint" />
            <mxPoint x="1060" y="-10" as="targetPoint" />
            <Array as="points">
              <mxPoint x="1080" y="-33" />
            </Array>
          </mxGeometry>
        </mxCell>
        <mxCell id="AdHgcvFWVIwuHT3nMgFi-127" value="B,B/R" style="text;html=1;align=center;verticalAlign=middle;whiteSpace=wrap;rounded=0;" parent="1" vertex="1">
          <mxGeometry x="1072" y="-48" width="60" height="30" as="geometry" />
        </mxCell>
        <mxCell id="AdHgcvFWVIwuHT3nMgFi-128" value="" style="endArrow=classic;html=1;rounded=0;exitX=0;exitY=0.5;exitDx=0;exitDy=0;entryX=1;entryY=0.5;entryDx=0;entryDy=0;" parent="1" source="AdHgcvFWVIwuHT3nMgFi-63" target="AdHgcvFWVIwuHT3nMgFi-68" edge="1">
          <mxGeometry width="50" height="50" relative="1" as="geometry">
            <mxPoint x="810" y="-160" as="sourcePoint" />
            <mxPoint x="860" y="-210" as="targetPoint" />
          </mxGeometry>
        </mxCell>
        <mxCell id="AdHgcvFWVIwuHT3nMgFi-129" value="0,B/L" style="text;html=1;align=center;verticalAlign=middle;whiteSpace=wrap;rounded=0;" parent="1" vertex="1">
          <mxGeometry x="915" y="-113" width="60" height="30" as="geometry" />
        </mxCell>
        <mxCell id="AdHgcvFWVIwuHT3nMgFi-130" value="" style="endArrow=classic;html=1;rounded=0;exitX=0;exitY=1;exitDx=0;exitDy=0;entryX=1;entryY=0.5;entryDx=0;entryDy=0;" parent="1" source="AdHgcvFWVIwuHT3nMgFi-63" target="AdHgcvFWVIwuHT3nMgFi-45" edge="1">
          <mxGeometry width="50" height="50" relative="1" as="geometry">
            <mxPoint x="930.0000000000064" y="27" as="sourcePoint" />
            <mxPoint x="780" y="-20" as="targetPoint" />
          </mxGeometry>
        </mxCell>
        <mxCell id="AdHgcvFWVIwuHT3nMgFi-131" value="C,C/L" style="text;html=1;align=center;verticalAlign=middle;whiteSpace=wrap;rounded=0;" parent="1" vertex="1">
          <mxGeometry x="850" y="-43" width="60" height="30" as="geometry" />
        </mxCell>
        <mxCell id="AdHgcvFWVIwuHT3nMgFi-171" value="" style="endArrow=classic;html=1;rounded=0;exitX=0;exitY=0.5;exitDx=0;exitDy=0;entryX=1;entryY=0.5;entryDx=0;entryDy=0;" parent="1" source="AdHgcvFWVIwuHT3nMgFi-68" target="AdHgcvFWVIwuHT3nMgFi-62" edge="1">
          <mxGeometry width="50" height="50" relative="1" as="geometry">
            <mxPoint x="740" y="-200" as="sourcePoint" />
            <mxPoint x="790" y="-250" as="targetPoint" />
          </mxGeometry>
        </mxCell>
        <mxCell id="AdHgcvFWVIwuHT3nMgFi-173" value="" style="group" parent="1" vertex="1" connectable="0">
          <mxGeometry x="10" y="-340" width="756" height="228" as="geometry" />
        </mxCell>
        <mxCell id="AdHgcvFWVIwuHT3nMgFi-158" value="" style="group" parent="AdHgcvFWVIwuHT3nMgFi-173" vertex="1" connectable="0">
          <mxGeometry x="103" width="653" height="228" as="geometry" />
        </mxCell>
        <mxCell id="AdHgcvFWVIwuHT3nMgFi-56" value="q16" style="ellipse;whiteSpace=wrap;html=1;aspect=fixed;" parent="AdHgcvFWVIwuHT3nMgFi-158" vertex="1">
          <mxGeometry x="5" y="68" width="50" height="50" as="geometry" />
        </mxCell>
        <mxCell id="AdHgcvFWVIwuHT3nMgFi-57" value="q15" style="ellipse;whiteSpace=wrap;html=1;aspect=fixed;" parent="AdHgcvFWVIwuHT3nMgFi-158" vertex="1">
          <mxGeometry x="115" y="68" width="50" height="50" as="geometry" />
        </mxCell>
        <mxCell id="AdHgcvFWVIwuHT3nMgFi-58" value="q14" style="ellipse;whiteSpace=wrap;html=1;aspect=fixed;" parent="AdHgcvFWVIwuHT3nMgFi-158" vertex="1">
          <mxGeometry x="240" y="68" width="50" height="50" as="geometry" />
        </mxCell>
        <mxCell id="AdHgcvFWVIwuHT3nMgFi-59" value="q13" style="ellipse;whiteSpace=wrap;html=1;aspect=fixed;" parent="AdHgcvFWVIwuHT3nMgFi-158" vertex="1">
          <mxGeometry x="360" y="68" width="50" height="50" as="geometry" />
        </mxCell>
        <mxCell id="AdHgcvFWVIwuHT3nMgFi-60" value="q12" style="ellipse;whiteSpace=wrap;html=1;aspect=fixed;" parent="AdHgcvFWVIwuHT3nMgFi-158" vertex="1">
          <mxGeometry x="470" y="68" width="50" height="50" as="geometry" />
        </mxCell>
        <mxCell id="AdHgcvFWVIwuHT3nMgFi-62" value="q11" style="ellipse;whiteSpace=wrap;html=1;aspect=fixed;" parent="AdHgcvFWVIwuHT3nMgFi-158" vertex="1">
          <mxGeometry x="601" y="68" width="50" height="50" as="geometry" />
        </mxCell>
        <mxCell id="AdHgcvFWVIwuHT3nMgFi-67" value="q19" style="ellipse;whiteSpace=wrap;html=1;aspect=fixed;" parent="AdHgcvFWVIwuHT3nMgFi-158" vertex="1">
          <mxGeometry x="480" y="158" width="50" height="50" as="geometry" />
        </mxCell>
        <mxCell id="AdHgcvFWVIwuHT3nMgFi-132" value="" style="endArrow=classic;html=1;rounded=0;exitX=0;exitY=0;exitDx=0;exitDy=0;entryX=1;entryY=0;entryDx=0;entryDy=0;" parent="AdHgcvFWVIwuHT3nMgFi-158" source="AdHgcvFWVIwuHT3nMgFi-62" target="AdHgcvFWVIwuHT3nMgFi-62" edge="1">
          <mxGeometry width="50" height="50" relative="1" as="geometry">
            <mxPoint x="604" y="76.5" as="sourcePoint" />
            <mxPoint x="675" y="28" as="targetPoint" />
            <Array as="points">
              <mxPoint x="622" y="49.5" />
            </Array>
          </mxGeometry>
        </mxCell>
        <mxCell id="AdHgcvFWVIwuHT3nMgFi-133" value="X,X/L" style="text;html=1;align=center;verticalAlign=middle;whiteSpace=wrap;rounded=0;" parent="AdHgcvFWVIwuHT3nMgFi-158" vertex="1">
          <mxGeometry x="593" y="24" width="60" height="30" as="geometry" />
        </mxCell>
        <mxCell id="AdHgcvFWVIwuHT3nMgFi-134" value="" style="endArrow=classic;html=1;rounded=0;exitX=0;exitY=0.5;exitDx=0;exitDy=0;entryX=1;entryY=0.5;entryDx=0;entryDy=0;" parent="AdHgcvFWVIwuHT3nMgFi-158" source="AdHgcvFWVIwuHT3nMgFi-62" target="AdHgcvFWVIwuHT3nMgFi-60" edge="1">
          <mxGeometry width="50" height="50" relative="1" as="geometry">
            <mxPoint x="795" y="88" as="sourcePoint" />
            <mxPoint x="525" y="93" as="targetPoint" />
          </mxGeometry>
        </mxCell>
        <mxCell id="AdHgcvFWVIwuHT3nMgFi-135" value="0,X/R" style="text;html=1;align=center;verticalAlign=middle;whiteSpace=wrap;rounded=0;" parent="AdHgcvFWVIwuHT3nMgFi-158" vertex="1">
          <mxGeometry x="535" y="88" width="60" height="30" as="geometry" />
        </mxCell>
        <mxCell id="AdHgcvFWVIwuHT3nMgFi-136" value="" style="endArrow=classic;html=1;rounded=0;exitX=0.5;exitY=1;exitDx=0;exitDy=0;entryX=1;entryY=0.5;entryDx=0;entryDy=0;" parent="AdHgcvFWVIwuHT3nMgFi-158" source="AdHgcvFWVIwuHT3nMgFi-62" target="AdHgcvFWVIwuHT3nMgFi-67" edge="1">
          <mxGeometry width="50" height="50" relative="1" as="geometry">
            <mxPoint x="580" y="198" as="sourcePoint" />
            <mxPoint x="630" y="148" as="targetPoint" />
          </mxGeometry>
        </mxCell>
        <mxCell id="AdHgcvFWVIwuHT3nMgFi-137" value="B,B/R" style="text;html=1;align=center;verticalAlign=middle;whiteSpace=wrap;rounded=0;" parent="AdHgcvFWVIwuHT3nMgFi-158" vertex="1">
          <mxGeometry x="570" y="148" width="60" height="30" as="geometry" />
        </mxCell>
        <mxCell id="AdHgcvFWVIwuHT3nMgFi-139" value="" style="endArrow=classic;html=1;rounded=0;exitX=0;exitY=0;exitDx=0;exitDy=0;entryX=1;entryY=0;entryDx=0;entryDy=0;" parent="AdHgcvFWVIwuHT3nMgFi-158" source="AdHgcvFWVIwuHT3nMgFi-60" target="AdHgcvFWVIwuHT3nMgFi-60" edge="1">
          <mxGeometry width="50" height="50" relative="1" as="geometry">
            <mxPoint x="477" y="68" as="sourcePoint" />
            <mxPoint x="513" y="68" as="targetPoint" />
            <Array as="points">
              <mxPoint x="495" y="41" />
            </Array>
          </mxGeometry>
        </mxCell>
        <mxCell id="AdHgcvFWVIwuHT3nMgFi-140" value="X,X/R" style="text;html=1;align=center;verticalAlign=middle;whiteSpace=wrap;rounded=0;" parent="AdHgcvFWVIwuHT3nMgFi-158" vertex="1">
          <mxGeometry x="465" y="18" width="60" height="30" as="geometry" />
        </mxCell>
        <mxCell id="AdHgcvFWVIwuHT3nMgFi-141" value="" style="endArrow=classic;html=1;rounded=0;entryX=1;entryY=0.5;entryDx=0;entryDy=0;exitX=0;exitY=0.5;exitDx=0;exitDy=0;" parent="AdHgcvFWVIwuHT3nMgFi-158" source="AdHgcvFWVIwuHT3nMgFi-60" target="AdHgcvFWVIwuHT3nMgFi-59" edge="1">
          <mxGeometry width="50" height="50" relative="1" as="geometry">
            <mxPoint x="395" y="-52" as="sourcePoint" />
            <mxPoint x="445" y="-102" as="targetPoint" />
          </mxGeometry>
        </mxCell>
        <mxCell id="AdHgcvFWVIwuHT3nMgFi-142" value="" style="endArrow=classic;html=1;rounded=0;entryX=1;entryY=0;entryDx=0;entryDy=0;exitX=0;exitY=0;exitDx=0;exitDy=0;" parent="AdHgcvFWVIwuHT3nMgFi-158" source="AdHgcvFWVIwuHT3nMgFi-59" target="AdHgcvFWVIwuHT3nMgFi-59" edge="1">
          <mxGeometry width="50" height="50" relative="1" as="geometry">
            <mxPoint x="365" y="68" as="sourcePoint" />
            <mxPoint x="403" y="78" as="targetPoint" />
            <Array as="points">
              <mxPoint x="385" y="44" />
            </Array>
          </mxGeometry>
        </mxCell>
        <mxCell id="AdHgcvFWVIwuHT3nMgFi-143" value="0,0/R" style="text;html=1;align=center;verticalAlign=middle;whiteSpace=wrap;rounded=0;" parent="AdHgcvFWVIwuHT3nMgFi-158" vertex="1">
          <mxGeometry x="355" y="18" width="60" height="30" as="geometry" />
        </mxCell>
        <mxCell id="AdHgcvFWVIwuHT3nMgFi-144" value="B,B/R" style="text;html=1;align=center;verticalAlign=middle;whiteSpace=wrap;rounded=0;" parent="AdHgcvFWVIwuHT3nMgFi-158" vertex="1">
          <mxGeometry x="355" y="3" width="60" height="30" as="geometry" />
        </mxCell>
        <mxCell id="AdHgcvFWVIwuHT3nMgFi-145" value="" style="endArrow=classic;html=1;rounded=0;exitX=0;exitY=0.5;exitDx=0;exitDy=0;entryX=1;entryY=0.5;entryDx=0;entryDy=0;" parent="AdHgcvFWVIwuHT3nMgFi-158" source="AdHgcvFWVIwuHT3nMgFi-59" target="AdHgcvFWVIwuHT3nMgFi-58" edge="1">
          <mxGeometry width="50" height="50" relative="1" as="geometry">
            <mxPoint x="545" y="88" as="sourcePoint" />
            <mxPoint x="595" y="38" as="targetPoint" />
          </mxGeometry>
        </mxCell>
        <mxCell id="AdHgcvFWVIwuHT3nMgFi-146" value="C,C/R" style="text;html=1;align=center;verticalAlign=middle;whiteSpace=wrap;rounded=0;" parent="AdHgcvFWVIwuHT3nMgFi-158" vertex="1">
          <mxGeometry x="300" y="88" width="60" height="30" as="geometry" />
        </mxCell>
        <mxCell id="AdHgcvFWVIwuHT3nMgFi-147" value="" style="endArrow=classic;html=1;rounded=0;entryX=1;entryY=0;entryDx=0;entryDy=0;exitX=0;exitY=0;exitDx=0;exitDy=0;" parent="AdHgcvFWVIwuHT3nMgFi-158" source="AdHgcvFWVIwuHT3nMgFi-58" target="AdHgcvFWVIwuHT3nMgFi-58" edge="1">
          <mxGeometry width="50" height="50" relative="1" as="geometry">
            <mxPoint x="247" y="78" as="sourcePoint" />
            <mxPoint x="283" y="78" as="targetPoint" />
            <Array as="points">
              <mxPoint x="265" y="47" />
            </Array>
          </mxGeometry>
        </mxCell>
        <mxCell id="AdHgcvFWVIwuHT3nMgFi-148" value="0,0/R" style="text;html=1;align=center;verticalAlign=middle;whiteSpace=wrap;rounded=0;" parent="AdHgcvFWVIwuHT3nMgFi-158" vertex="1">
          <mxGeometry x="240" y="18" width="60" height="30" as="geometry" />
        </mxCell>
        <mxCell id="AdHgcvFWVIwuHT3nMgFi-149" value="Y,Y/R" style="text;html=1;align=center;verticalAlign=middle;whiteSpace=wrap;rounded=0;" parent="AdHgcvFWVIwuHT3nMgFi-158" vertex="1">
          <mxGeometry x="240" width="60" height="30" as="geometry" />
        </mxCell>
        <mxCell id="AdHgcvFWVIwuHT3nMgFi-150" value="" style="endArrow=classic;html=1;rounded=0;exitX=0;exitY=0.5;exitDx=0;exitDy=0;entryX=1;entryY=0.5;entryDx=0;entryDy=0;" parent="AdHgcvFWVIwuHT3nMgFi-158" source="AdHgcvFWVIwuHT3nMgFi-58" target="AdHgcvFWVIwuHT3nMgFi-57" edge="1">
          <mxGeometry width="50" height="50" relative="1" as="geometry">
            <mxPoint x="415" y="88" as="sourcePoint" />
            <mxPoint x="465" y="38" as="targetPoint" />
          </mxGeometry>
        </mxCell>
        <mxCell id="AdHgcvFWVIwuHT3nMgFi-151" value="B,B/L" style="text;html=1;align=center;verticalAlign=middle;whiteSpace=wrap;rounded=0;" parent="AdHgcvFWVIwuHT3nMgFi-158" vertex="1">
          <mxGeometry x="175" y="88" width="60" height="30" as="geometry" />
        </mxCell>
        <mxCell id="AdHgcvFWVIwuHT3nMgFi-152" value="" style="endArrow=classic;html=1;rounded=0;entryX=1;entryY=0;entryDx=0;entryDy=0;exitX=0;exitY=0;exitDx=0;exitDy=0;" parent="AdHgcvFWVIwuHT3nMgFi-158" source="AdHgcvFWVIwuHT3nMgFi-57" target="AdHgcvFWVIwuHT3nMgFi-57" edge="1">
          <mxGeometry width="50" height="50" relative="1" as="geometry">
            <mxPoint x="122" y="68" as="sourcePoint" />
            <mxPoint x="158" y="68" as="targetPoint" />
            <Array as="points">
              <mxPoint x="140" y="48" />
            </Array>
          </mxGeometry>
        </mxCell>
        <mxCell id="AdHgcvFWVIwuHT3nMgFi-153" value="Y,Y/L" style="text;html=1;align=center;verticalAlign=middle;whiteSpace=wrap;rounded=0;" parent="AdHgcvFWVIwuHT3nMgFi-158" vertex="1">
          <mxGeometry x="110" y="18" width="60" height="30" as="geometry" />
        </mxCell>
        <mxCell id="AdHgcvFWVIwuHT3nMgFi-154" value="" style="endArrow=classic;html=1;rounded=0;exitX=0;exitY=0.5;exitDx=0;exitDy=0;entryX=1;entryY=0.5;entryDx=0;entryDy=0;" parent="AdHgcvFWVIwuHT3nMgFi-158" source="AdHgcvFWVIwuHT3nMgFi-57" target="AdHgcvFWVIwuHT3nMgFi-56" edge="1">
          <mxGeometry width="50" height="50" relative="1" as="geometry">
            <mxPoint x="265" y="218" as="sourcePoint" />
            <mxPoint x="315" y="168" as="targetPoint" />
          </mxGeometry>
        </mxCell>
        <mxCell id="AdHgcvFWVIwuHT3nMgFi-155" value="0,Y/R" style="text;html=1;align=center;verticalAlign=middle;whiteSpace=wrap;rounded=0;" parent="AdHgcvFWVIwuHT3nMgFi-158" vertex="1">
          <mxGeometry x="60" y="88" width="60" height="30" as="geometry" />
        </mxCell>
        <mxCell id="AdHgcvFWVIwuHT3nMgFi-156" value="Y,Y/R" style="text;html=1;align=center;verticalAlign=middle;whiteSpace=wrap;rounded=0;" parent="AdHgcvFWVIwuHT3nMgFi-158" vertex="1">
          <mxGeometry y="18" width="60" height="30" as="geometry" />
        </mxCell>
        <mxCell id="AdHgcvFWVIwuHT3nMgFi-157" value="" style="endArrow=classic;html=1;rounded=0;entryX=1;entryY=0;entryDx=0;entryDy=0;exitX=0;exitY=0;exitDx=0;exitDy=0;" parent="AdHgcvFWVIwuHT3nMgFi-158" source="AdHgcvFWVIwuHT3nMgFi-56" target="AdHgcvFWVIwuHT3nMgFi-56" edge="1">
          <mxGeometry width="50" height="50" relative="1" as="geometry">
            <mxPoint x="12" y="68" as="sourcePoint" />
            <mxPoint x="48" y="68" as="targetPoint" />
            <Array as="points">
              <mxPoint x="30" y="48" />
            </Array>
          </mxGeometry>
        </mxCell>
        <mxCell id="AdHgcvFWVIwuHT3nMgFi-167" value="Y,Y/L" style="text;html=1;align=center;verticalAlign=middle;whiteSpace=wrap;rounded=0;" parent="AdHgcvFWVIwuHT3nMgFi-158" vertex="1">
          <mxGeometry y="168" width="60" height="30" as="geometry" />
        </mxCell>
        <mxCell id="AdHgcvFWVIwuHT3nMgFi-177" value="" style="endArrow=classic;html=1;rounded=0;entryX=1;entryY=1;entryDx=0;entryDy=0;exitX=0;exitY=1;exitDx=0;exitDy=0;" parent="AdHgcvFWVIwuHT3nMgFi-158" source="AdHgcvFWVIwuHT3nMgFi-67" target="AdHgcvFWVIwuHT3nMgFi-67" edge="1">
          <mxGeometry width="50" height="50" relative="1" as="geometry">
            <mxPoint x="487" y="230" as="sourcePoint" />
            <mxPoint x="537" y="235" as="targetPoint" />
            <Array as="points">
              <mxPoint x="505" y="235" />
            </Array>
          </mxGeometry>
        </mxCell>
        <mxCell id="AdHgcvFWVIwuHT3nMgFi-66" value="q20" style="ellipse;whiteSpace=wrap;html=1;aspect=fixed;" parent="AdHgcvFWVIwuHT3nMgFi-158" vertex="1">
          <mxGeometry x="337" y="158" width="50" height="50" as="geometry" />
        </mxCell>
        <mxCell id="AdHgcvFWVIwuHT3nMgFi-180" value="" style="endArrow=classic;html=1;rounded=0;exitX=0;exitY=0.5;exitDx=0;exitDy=0;entryX=1;entryY=0.5;entryDx=0;entryDy=0;" parent="AdHgcvFWVIwuHT3nMgFi-158" source="AdHgcvFWVIwuHT3nMgFi-67" target="AdHgcvFWVIwuHT3nMgFi-66" edge="1">
          <mxGeometry width="50" height="50" relative="1" as="geometry">
            <mxPoint x="357" y="130" as="sourcePoint" />
            <mxPoint x="377" y="280" as="targetPoint" />
          </mxGeometry>
        </mxCell>
        <mxCell id="AdHgcvFWVIwuHT3nMgFi-181" value="C,C/R" style="text;html=1;align=center;verticalAlign=middle;whiteSpace=wrap;rounded=0;" parent="AdHgcvFWVIwuHT3nMgFi-158" vertex="1">
          <mxGeometry x="410" y="180" width="60" height="30" as="geometry" />
        </mxCell>
        <mxCell id="AdHgcvFWVIwuHT3nMgFi-185" value="" style="endArrow=classic;html=1;rounded=0;entryX=1;entryY=1;entryDx=0;entryDy=0;exitX=0;exitY=1;exitDx=0;exitDy=0;" parent="AdHgcvFWVIwuHT3nMgFi-158" source="AdHgcvFWVIwuHT3nMgFi-66" target="AdHgcvFWVIwuHT3nMgFi-66" edge="1">
          <mxGeometry width="50" height="50" relative="1" as="geometry">
            <mxPoint x="344" y="210" as="sourcePoint" />
            <mxPoint x="387" y="210" as="targetPoint" />
            <Array as="points">
              <mxPoint x="362" y="235" />
            </Array>
          </mxGeometry>
        </mxCell>
        <mxCell id="AdHgcvFWVIwuHT3nMgFi-188" value="q21" style="ellipse;whiteSpace=wrap;html=1;aspect=fixed;" parent="AdHgcvFWVIwuHT3nMgFi-158" vertex="1">
          <mxGeometry x="227" y="158" width="50" height="50" as="geometry" />
        </mxCell>
        <mxCell id="AdHgcvFWVIwuHT3nMgFi-189" value="" style="endArrow=classic;html=1;rounded=0;exitX=0;exitY=0.5;exitDx=0;exitDy=0;entryX=1;entryY=0.5;entryDx=0;entryDy=0;" parent="AdHgcvFWVIwuHT3nMgFi-158" source="AdHgcvFWVIwuHT3nMgFi-66" target="AdHgcvFWVIwuHT3nMgFi-188" edge="1">
          <mxGeometry width="50" height="50" relative="1" as="geometry">
            <mxPoint x="377" y="130" as="sourcePoint" />
            <mxPoint x="427" y="80" as="targetPoint" />
          </mxGeometry>
        </mxCell>
        <mxCell id="AdHgcvFWVIwuHT3nMgFi-190" value="C,C/R" style="text;html=1;align=center;verticalAlign=middle;whiteSpace=wrap;rounded=0;" parent="AdHgcvFWVIwuHT3nMgFi-158" vertex="1">
          <mxGeometry x="282" y="180" width="60" height="32" as="geometry" />
        </mxCell>
        <mxCell id="AdHgcvFWVIwuHT3nMgFi-197" value="C,C/L" style="text;html=1;align=center;verticalAlign=middle;whiteSpace=wrap;rounded=0;" parent="AdHgcvFWVIwuHT3nMgFi-158" vertex="1">
          <mxGeometry x="137" y="190" width="60" height="32" as="geometry" />
        </mxCell>
        <mxCell id="AdHgcvFWVIwuHT3nMgFi-159" value="q17" style="ellipse;whiteSpace=wrap;html=1;aspect=fixed;" parent="AdHgcvFWVIwuHT3nMgFi-173" vertex="1">
          <mxGeometry x="3" y="68" width="50" height="50" as="geometry" />
        </mxCell>
        <mxCell id="AdHgcvFWVIwuHT3nMgFi-160" value="" style="endArrow=classic;html=1;rounded=0;exitX=0;exitY=0.5;exitDx=0;exitDy=0;entryX=1;entryY=0.5;entryDx=0;entryDy=0;" parent="AdHgcvFWVIwuHT3nMgFi-173" source="AdHgcvFWVIwuHT3nMgFi-56" target="AdHgcvFWVIwuHT3nMgFi-159" edge="1">
          <mxGeometry width="50" height="50" relative="1" as="geometry">
            <mxPoint x="503" y="30" as="sourcePoint" />
            <mxPoint x="553" y="-20" as="targetPoint" />
          </mxGeometry>
        </mxCell>
        <mxCell id="AdHgcvFWVIwuHT3nMgFi-161" value="B,0/L" style="text;html=1;align=center;verticalAlign=middle;whiteSpace=wrap;rounded=0;" parent="AdHgcvFWVIwuHT3nMgFi-173" vertex="1">
          <mxGeometry x="55" y="91" width="60" height="30" as="geometry" />
        </mxCell>
        <mxCell id="AdHgcvFWVIwuHT3nMgFi-162" value="" style="endArrow=classic;html=1;rounded=0;entryX=1;entryY=0;entryDx=0;entryDy=0;exitX=0;exitY=0;exitDx=0;exitDy=0;" parent="AdHgcvFWVIwuHT3nMgFi-173" source="AdHgcvFWVIwuHT3nMgFi-159" target="AdHgcvFWVIwuHT3nMgFi-159" edge="1">
          <mxGeometry width="50" height="50" relative="1" as="geometry">
            <mxPoint x="10" y="70" as="sourcePoint" />
            <mxPoint x="46" y="70" as="targetPoint" />
            <Array as="points">
              <mxPoint x="28" y="43" />
            </Array>
          </mxGeometry>
        </mxCell>
        <mxCell id="AdHgcvFWVIwuHT3nMgFi-164" value="0,0/L" style="text;html=1;align=center;verticalAlign=middle;whiteSpace=wrap;rounded=0;" parent="AdHgcvFWVIwuHT3nMgFi-173" vertex="1">
          <mxGeometry y="13" width="60" height="30" as="geometry" />
        </mxCell>
        <mxCell id="AdHgcvFWVIwuHT3nMgFi-166" value="" style="endArrow=classic;html=1;rounded=0;entryX=0.5;entryY=1;entryDx=0;entryDy=0;exitX=0.5;exitY=1;exitDx=0;exitDy=0;" parent="AdHgcvFWVIwuHT3nMgFi-173" source="AdHgcvFWVIwuHT3nMgFi-159" target="AdHgcvFWVIwuHT3nMgFi-57" edge="1">
          <mxGeometry width="50" height="50" relative="1" as="geometry">
            <mxPoint x="3" y="170" as="sourcePoint" />
            <mxPoint x="333" y="170" as="targetPoint" />
            <Array as="points">
              <mxPoint x="133" y="170" />
            </Array>
          </mxGeometry>
        </mxCell>
        <mxCell id="AdHgcvFWVIwuHT3nMgFi-174" value="" style="group" parent="1" vertex="1" connectable="0">
          <mxGeometry x="870" y="-335" width="61" height="113" as="geometry" />
        </mxCell>
        <mxCell id="AdHgcvFWVIwuHT3nMgFi-68" value="q18" style="ellipse;whiteSpace=wrap;html=1;aspect=fixed;" parent="AdHgcvFWVIwuHT3nMgFi-174" vertex="1">
          <mxGeometry x="6" y="63" width="50" height="50" as="geometry" />
        </mxCell>
        <mxCell id="AdHgcvFWVIwuHT3nMgFi-168" value="" style="endArrow=classic;html=1;rounded=0;exitX=0.1;exitY=0.2;exitDx=0;exitDy=0;entryX=1;entryY=0;entryDx=0;entryDy=0;exitPerimeter=0;" parent="AdHgcvFWVIwuHT3nMgFi-174" source="AdHgcvFWVIwuHT3nMgFi-68" target="AdHgcvFWVIwuHT3nMgFi-68" edge="1">
          <mxGeometry width="50" height="50" relative="1" as="geometry">
            <mxPoint x="8" y="63" as="sourcePoint" />
            <mxPoint x="44" y="63" as="targetPoint" />
            <Array as="points">
              <mxPoint x="29" y="38.5" />
            </Array>
          </mxGeometry>
        </mxCell>
        <mxCell id="AdHgcvFWVIwuHT3nMgFi-169" value="0,0/L" style="text;html=1;align=center;verticalAlign=middle;whiteSpace=wrap;rounded=0;" parent="AdHgcvFWVIwuHT3nMgFi-174" vertex="1">
          <mxGeometry x="1" y="14" width="60" height="30" as="geometry" />
        </mxCell>
        <mxCell id="AdHgcvFWVIwuHT3nMgFi-170" value="B,B/L" style="text;html=1;align=center;verticalAlign=middle;whiteSpace=wrap;rounded=0;" parent="AdHgcvFWVIwuHT3nMgFi-174" vertex="1">
          <mxGeometry width="60" height="30" as="geometry" />
        </mxCell>
        <mxCell id="AdHgcvFWVIwuHT3nMgFi-176" value="C,C/L" style="text;html=1;align=center;verticalAlign=middle;whiteSpace=wrap;rounded=0;" parent="1" vertex="1">
          <mxGeometry x="795" y="-250" width="60" height="30" as="geometry" />
        </mxCell>
        <mxCell id="AdHgcvFWVIwuHT3nMgFi-179" value="X,0/R" style="text;html=1;align=center;verticalAlign=middle;whiteSpace=wrap;rounded=0;" parent="1" vertex="1">
          <mxGeometry x="590" y="-107" width="60" height="32" as="geometry" />
        </mxCell>
        <mxCell id="AdHgcvFWVIwuHT3nMgFi-186" value="0,0/R" style="text;html=1;align=center;verticalAlign=middle;whiteSpace=wrap;rounded=0;" parent="1" vertex="1">
          <mxGeometry x="450" y="-110" width="60" height="32" as="geometry" />
        </mxCell>
        <mxCell id="AdHgcvFWVIwuHT3nMgFi-187" value="B,B/R" style="text;html=1;align=center;verticalAlign=middle;whiteSpace=wrap;rounded=0;" parent="1" vertex="1">
          <mxGeometry x="450" y="-92" width="60" height="32" as="geometry" />
        </mxCell>
        <mxCell id="AdHgcvFWVIwuHT3nMgFi-191" value="" style="endArrow=classic;html=1;rounded=0;exitX=0;exitY=1;exitDx=0;exitDy=0;" parent="1" source="AdHgcvFWVIwuHT3nMgFi-188" edge="1">
          <mxGeometry width="50" height="50" relative="1" as="geometry">
            <mxPoint x="349" y="-129" as="sourcePoint" />
            <mxPoint x="385" y="-140" as="targetPoint" />
            <Array as="points">
              <mxPoint x="367" y="-100" />
            </Array>
          </mxGeometry>
        </mxCell>
        <mxCell id="AdHgcvFWVIwuHT3nMgFi-192" value="0,0/R" style="text;html=1;align=center;verticalAlign=middle;whiteSpace=wrap;rounded=0;" parent="1" vertex="1">
          <mxGeometry x="340" y="-104" width="60" height="32" as="geometry" />
        </mxCell>
        <mxCell id="AdHgcvFWVIwuHT3nMgFi-194" style="edgeStyle=orthogonalEdgeStyle;rounded=0;orthogonalLoop=1;jettySize=auto;html=1;exitX=0.5;exitY=1;exitDx=0;exitDy=0;" parent="1" source="AdHgcvFWVIwuHT3nMgFi-192" target="AdHgcvFWVIwuHT3nMgFi-192" edge="1">
          <mxGeometry relative="1" as="geometry" />
        </mxCell>
        <mxCell id="AdHgcvFWVIwuHT3nMgFi-195" value="Y,0/R" style="text;html=1;align=center;verticalAlign=middle;whiteSpace=wrap;rounded=0;" parent="1" vertex="1">
          <mxGeometry x="340" y="-90" width="60" height="32" as="geometry" />
        </mxCell>
        <mxCell id="AdHgcvFWVIwuHT3nMgFi-196" value="" style="endArrow=classic;html=1;rounded=0;entryX=1;entryY=0.5;entryDx=0;entryDy=0;exitX=0;exitY=0.5;exitDx=0;exitDy=0;" parent="1" source="AdHgcvFWVIwuHT3nMgFi-188" target="AdHgcvFWVIwuHT3nMgFi-64" edge="1">
          <mxGeometry width="50" height="50" relative="1" as="geometry">
            <mxPoint x="320" y="-120" as="sourcePoint" />
            <mxPoint x="480" y="-310" as="targetPoint" />
          </mxGeometry>
        </mxCell>
        <mxCell id="AdHgcvFWVIwuHT3nMgFi-198" value="" style="endArrow=classic;html=1;rounded=0;exitX=0.5;exitY=1;exitDx=0;exitDy=0;entryX=0;entryY=1;entryDx=0;entryDy=0;" parent="1" source="AdHgcvFWVIwuHT3nMgFi-64" target="AdHgcvFWVIwuHT3nMgFi-47" edge="1">
          <mxGeometry width="50" height="50" relative="1" as="geometry">
            <mxPoint x="370" as="sourcePoint" />
            <mxPoint x="710" y="-40" as="targetPoint" />
            <Array as="points">
              <mxPoint x="225" y="-40" />
              <mxPoint x="710" y="-40" />
              <mxPoint x="710" y="-110" />
            </Array>
          </mxGeometry>
        </mxCell>
        <mxCell id="AdHgcvFWVIwuHT3nMgFi-199" value="C,C/L" style="text;html=1;align=center;verticalAlign=middle;whiteSpace=wrap;rounded=0;" parent="1" vertex="1">
          <mxGeometry x="590" y="-44" width="60" height="32" as="geometry" />
        </mxCell>
        <mxCell id="AdHgcvFWVIwuHT3nMgFi-201" value="" style="endArrow=classic;html=1;rounded=0;exitX=0;exitY=0;exitDx=0;exitDy=0;entryX=0;entryY=1;entryDx=0;entryDy=0;" parent="1" source="AdHgcvFWVIwuHT3nMgFi-64" target="AdHgcvFWVIwuHT3nMgFi-64" edge="1">
          <mxGeometry width="50" height="50" relative="1" as="geometry">
            <mxPoint x="150" y="-85" as="sourcePoint" />
            <mxPoint x="186" y="-85" as="targetPoint" />
            <Array as="points">
              <mxPoint x="160" y="-80" />
            </Array>
          </mxGeometry>
        </mxCell>
        <mxCell id="AdHgcvFWVIwuHT3nMgFi-202" value="0,0/L" style="text;html=1;align=center;verticalAlign=middle;whiteSpace=wrap;rounded=0;" parent="1" vertex="1">
          <mxGeometry x="105" y="-110" width="60" height="32" as="geometry" />
        </mxCell>
        <mxCell id="AdHgcvFWVIwuHT3nMgFi-203" value="B,B/L" style="text;html=1;align=center;verticalAlign=middle;whiteSpace=wrap;rounded=0;" parent="1" vertex="1">
          <mxGeometry x="105" y="-89" width="60" height="32" as="geometry" />
        </mxCell>
        <mxCell id="AdHgcvFWVIwuHT3nMgFi-204" value="" style="endArrow=classic;html=1;rounded=0;exitX=0;exitY=0;exitDx=0;exitDy=0;entryX=1;entryY=0;entryDx=0;entryDy=0;" parent="1" source="AdHgcvFWVIwuHT3nMgFi-45" target="AdHgcvFWVIwuHT3nMgFi-45" edge="1">
          <mxGeometry width="50" height="50" relative="1" as="geometry">
            <mxPoint x="775" y="-37.5" as="sourcePoint" />
            <mxPoint x="813" y="-40.5" as="targetPoint" />
            <Array as="points">
              <mxPoint x="794" y="-60" />
            </Array>
          </mxGeometry>
        </mxCell>
        <mxCell id="AdHgcvFWVIwuHT3nMgFi-205" value="B,B/L" style="text;html=1;align=center;verticalAlign=middle;whiteSpace=wrap;rounded=0;" parent="1" vertex="1">
          <mxGeometry x="765" y="-83" width="60" height="32" as="geometry" />
        </mxCell>
        <mxCell id="AdHgcvFWVIwuHT3nMgFi-208" value="" style="endArrow=classic;html=1;rounded=0;exitX=0;exitY=0.5;exitDx=0;exitDy=0;entryX=0;entryY=0;entryDx=0;entryDy=0;" parent="1" source="AdHgcvFWVIwuHT3nMgFi-45" target="AdHgcvFWVIwuHT3nMgFi-69" edge="1">
          <mxGeometry width="50" height="50" relative="1" as="geometry">
            <mxPoint x="680" y="90" as="sourcePoint" />
            <mxPoint x="700" y="50" as="targetPoint" />
            <Array as="points" />
          </mxGeometry>
        </mxCell>
        <mxCell id="AdHgcvFWVIwuHT3nMgFi-209" value="C,B/L" style="text;html=1;align=center;verticalAlign=middle;whiteSpace=wrap;rounded=0;" parent="1" vertex="1">
          <mxGeometry x="720" y="10" width="60" height="32" as="geometry" />
        </mxCell>
        <mxCell id="AdHgcvFWVIwuHT3nMgFi-210" value="" style="endArrow=classic;html=1;rounded=0;exitX=1;exitY=1;exitDx=0;exitDy=0;entryX=1;entryY=0;entryDx=0;entryDy=0;" parent="1" source="AdHgcvFWVIwuHT3nMgFi-69" target="AdHgcvFWVIwuHT3nMgFi-69" edge="1">
          <mxGeometry width="50" height="50" relative="1" as="geometry">
            <mxPoint x="656" y="81" as="sourcePoint" />
            <mxPoint x="694" y="80" as="targetPoint" />
            <Array as="points">
              <mxPoint x="676" y="110" />
            </Array>
          </mxGeometry>
        </mxCell>
        <mxCell id="AdHgcvFWVIwuHT3nMgFi-211" value="0,B/L" style="text;html=1;align=center;verticalAlign=middle;whiteSpace=wrap;rounded=0;" parent="1" vertex="1">
          <mxGeometry x="650" y="110" width="60" height="32" as="geometry" />
        </mxCell>
        <mxCell id="AdHgcvFWVIwuHT3nMgFi-212" value="X,B/L" style="text;html=1;align=center;verticalAlign=middle;whiteSpace=wrap;rounded=0;" parent="1" vertex="1">
          <mxGeometry x="650" y="127" width="60" height="32" as="geometry" />
        </mxCell>
        <mxCell id="AdHgcvFWVIwuHT3nMgFi-213" value="B,B/R" style="text;html=1;align=center;verticalAlign=middle;whiteSpace=wrap;rounded=0;" parent="1" vertex="1">
          <mxGeometry x="650" y="142" width="60" height="32" as="geometry" />
        </mxCell>
        <mxCell id="AdHgcvFWVIwuHT3nMgFi-214" value="" style="endArrow=classic;html=1;rounded=0;exitX=0.5;exitY=1;exitDx=0;exitDy=0;entryX=1;entryY=0.5;entryDx=0;entryDy=0;" parent="1" source="AdHgcvFWVIwuHT3nMgFi-69" target="AdHgcvFWVIwuHT3nMgFi-71" edge="1">
          <mxGeometry width="50" height="50" relative="1" as="geometry">
            <mxPoint x="470" y="150" as="sourcePoint" />
            <mxPoint x="520" y="100" as="targetPoint" />
          </mxGeometry>
        </mxCell>
        <mxCell id="AdHgcvFWVIwuHT3nMgFi-215" value="C,B/R" style="text;html=1;align=center;verticalAlign=middle;whiteSpace=wrap;rounded=0;" parent="1" vertex="1">
          <mxGeometry x="540" y="20" width="60" height="32" as="geometry" />
        </mxCell>
        <mxCell id="AdHgcvFWVIwuHT3nMgFi-216" value="" style="endArrow=classic;html=1;rounded=0;exitX=1;exitY=0.5;exitDx=0;exitDy=0;entryX=0;entryY=0.5;entryDx=0;entryDy=0;" parent="1" source="AdHgcvFWVIwuHT3nMgFi-53" target="AdHgcvFWVIwuHT3nMgFi-52" edge="1">
          <mxGeometry width="50" height="50" relative="1" as="geometry">
            <mxPoint x="480" y="-450" as="sourcePoint" />
            <mxPoint x="530" y="-500" as="targetPoint" />
          </mxGeometry>
        </mxCell>
        <mxCell id="AdHgcvFWVIwuHT3nMgFi-86" value="C,C/L" style="text;html=1;align=center;verticalAlign=middle;whiteSpace=wrap;rounded=0;" parent="1" vertex="1">
          <mxGeometry x="380" y="-535" width="60" height="30" as="geometry" />
        </mxCell>
        <mxCell id="AdHgcvFWVIwuHT3nMgFi-87" value="0,X/R" style="text;html=1;align=center;verticalAlign=middle;whiteSpace=wrap;rounded=0;" parent="1" vertex="1">
          <mxGeometry x="460" y="-457" width="60" height="30" as="geometry" />
        </mxCell>
        <mxCell id="AdHgcvFWVIwuHT3nMgFi-218" value="q7" style="ellipse;whiteSpace=wrap;html=1;aspect=fixed;" parent="1" vertex="1">
          <mxGeometry x="425" y="470" width="54" height="54" as="geometry" />
        </mxCell>
        <mxCell id="AdHgcvFWVIwuHT3nMgFi-219" value="" style="group" parent="1" vertex="1" connectable="0">
          <mxGeometry x="110" y="320" width="110" height="50" as="geometry" />
        </mxCell>
        <mxCell id="AdHgcvFWVIwuHT3nMgFi-220" value="q0" style="ellipse;whiteSpace=wrap;html=1;aspect=fixed;" parent="AdHgcvFWVIwuHT3nMgFi-219" vertex="1">
          <mxGeometry x="60" width="50" height="50" as="geometry" />
        </mxCell>
        <mxCell id="AdHgcvFWVIwuHT3nMgFi-221" value="" style="endArrow=classic;html=1;rounded=0;entryX=0;entryY=0.5;entryDx=0;entryDy=0;" parent="AdHgcvFWVIwuHT3nMgFi-219" target="AdHgcvFWVIwuHT3nMgFi-220" edge="1">
          <mxGeometry width="50" height="50" relative="1" as="geometry">
            <mxPoint y="25" as="sourcePoint" />
            <mxPoint x="-20" y="10" as="targetPoint" />
          </mxGeometry>
        </mxCell>
        <mxCell id="AdHgcvFWVIwuHT3nMgFi-222" value="Start" style="text;html=1;align=center;verticalAlign=middle;whiteSpace=wrap;rounded=0;" parent="AdHgcvFWVIwuHT3nMgFi-219" vertex="1">
          <mxGeometry width="60" height="30" as="geometry" />
        </mxCell>
        <mxCell id="AdHgcvFWVIwuHT3nMgFi-240" value="" style="endArrow=classic;html=1;rounded=0;entryX=1;entryY=0;entryDx=0;entryDy=0;exitX=0;exitY=0;exitDx=0;exitDy=0;" parent="AdHgcvFWVIwuHT3nMgFi-219" source="AdHgcvFWVIwuHT3nMgFi-220" target="AdHgcvFWVIwuHT3nMgFi-220" edge="1">
          <mxGeometry width="50" height="50" relative="1" as="geometry">
            <mxPoint x="65" as="sourcePoint" />
            <mxPoint x="95" as="targetPoint" />
            <Array as="points">
              <mxPoint x="83" y="-20" />
            </Array>
          </mxGeometry>
        </mxCell>
        <mxCell id="AdHgcvFWVIwuHT3nMgFi-223" value="q6" style="ellipse;whiteSpace=wrap;html=1;aspect=fixed;" parent="1" vertex="1">
          <mxGeometry x="829" y="480" width="54" height="54" as="geometry" />
        </mxCell>
        <mxCell id="AdHgcvFWVIwuHT3nMgFi-224" value="q5" style="ellipse;whiteSpace=wrap;html=1;aspect=fixed;" parent="1" vertex="1">
          <mxGeometry x="827" y="319" width="54" height="54" as="geometry" />
        </mxCell>
        <mxCell id="AdHgcvFWVIwuHT3nMgFi-225" value="q4" style="ellipse;whiteSpace=wrap;html=1;aspect=fixed;" parent="1" vertex="1">
          <mxGeometry x="685" y="318" width="54" height="54" as="geometry" />
        </mxCell>
        <mxCell id="AdHgcvFWVIwuHT3nMgFi-226" value="q3" style="ellipse;whiteSpace=wrap;html=1;aspect=fixed;" parent="1" vertex="1">
          <mxGeometry x="555" y="318" width="54" height="54" as="geometry" />
        </mxCell>
        <mxCell id="AdHgcvFWVIwuHT3nMgFi-227" value="q1" style="ellipse;whiteSpace=wrap;html=1;aspect=fixed;" parent="1" vertex="1">
          <mxGeometry x="299" y="318" width="54" height="54" as="geometry" />
        </mxCell>
        <mxCell id="AdHgcvFWVIwuHT3nMgFi-229" value="q8" style="ellipse;whiteSpace=wrap;html=1;aspect=fixed;" parent="1" vertex="1">
          <mxGeometry x="299" y="470" width="54" height="54" as="geometry" />
        </mxCell>
        <mxCell id="AdHgcvFWVIwuHT3nMgFi-230" value="q9" style="ellipse;whiteSpace=wrap;html=1;aspect=fixed;" parent="1" vertex="1">
          <mxGeometry x="165" y="470" width="54" height="54" as="geometry" />
        </mxCell>
        <mxCell id="AdHgcvFWVIwuHT3nMgFi-231" value="q10" style="ellipse;whiteSpace=wrap;html=1;aspect=fixed;" parent="1" vertex="1">
          <mxGeometry x="685" y="480" width="54" height="54" as="geometry" />
        </mxCell>
        <mxCell id="AdHgcvFWVIwuHT3nMgFi-232" value="q11" style="ellipse;whiteSpace=wrap;html=1;aspect=fixed;" parent="1" vertex="1">
          <mxGeometry x="566" y="580" width="54" height="54" as="geometry" />
        </mxCell>
        <mxCell id="AdHgcvFWVIwuHT3nMgFi-234" value="" style="endArrow=classic;html=1;rounded=0;exitX=1;exitY=0.5;exitDx=0;exitDy=0;entryX=0;entryY=0.5;entryDx=0;entryDy=0;" parent="1" source="AdHgcvFWVIwuHT3nMgFi-220" target="AdHgcvFWVIwuHT3nMgFi-227" edge="1">
          <mxGeometry width="50" height="50" relative="1" as="geometry">
            <mxPoint x="230" y="470" as="sourcePoint" />
            <mxPoint x="280" y="420" as="targetPoint" />
          </mxGeometry>
        </mxCell>
        <mxCell id="AdHgcvFWVIwuHT3nMgFi-235" value="C,C/R" style="text;html=1;align=center;verticalAlign=middle;whiteSpace=wrap;rounded=0;" parent="1" vertex="1">
          <mxGeometry x="228" y="340" width="60" height="32" as="geometry" />
        </mxCell>
        <mxCell id="AdHgcvFWVIwuHT3nMgFi-238" value="" style="group" parent="1" vertex="1" connectable="0">
          <mxGeometry x="137" y="-535" width="60" height="62" as="geometry" />
        </mxCell>
        <mxCell id="AdHgcvFWVIwuHT3nMgFi-43" value="" style="endArrow=classic;html=1;rounded=0;exitX=0;exitY=0;exitDx=0;exitDy=0;entryX=1;entryY=0;entryDx=0;entryDy=0;" parent="AdHgcvFWVIwuHT3nMgFi-238" edge="1">
          <mxGeometry width="50" height="50" relative="1" as="geometry">
            <mxPoint x="10" y="62" as="sourcePoint" />
            <mxPoint x="46" y="62" as="targetPoint" />
            <Array as="points">
              <mxPoint x="28" y="25" />
            </Array>
          </mxGeometry>
        </mxCell>
        <mxCell id="AdHgcvFWVIwuHT3nMgFi-44" value="0,0/R" style="text;html=1;align=center;verticalAlign=middle;whiteSpace=wrap;rounded=0;" parent="AdHgcvFWVIwuHT3nMgFi-238" vertex="1">
          <mxGeometry width="60" height="30" as="geometry" />
        </mxCell>
        <mxCell id="AdHgcvFWVIwuHT3nMgFi-241" value="0,0/R" style="text;html=1;align=center;verticalAlign=middle;whiteSpace=wrap;rounded=0;" parent="1" vertex="1">
          <mxGeometry x="165" y="274" width="60" height="30.967741935483872" as="geometry" />
        </mxCell>
        <mxCell id="AdHgcvFWVIwuHT3nMgFi-244" value="q2" style="ellipse;whiteSpace=wrap;html=1;aspect=fixed;" parent="1" vertex="1">
          <mxGeometry x="425" y="318" width="54" height="54" as="geometry" />
        </mxCell>
        <mxCell id="AdHgcvFWVIwuHT3nMgFi-245" value="" style="endArrow=classic;html=1;rounded=0;exitX=1;exitY=0.5;exitDx=0;exitDy=0;entryX=0;entryY=0.5;entryDx=0;entryDy=0;" parent="1" source="AdHgcvFWVIwuHT3nMgFi-227" target="AdHgcvFWVIwuHT3nMgFi-244" edge="1">
          <mxGeometry width="50" height="50" relative="1" as="geometry">
            <mxPoint x="350" y="460" as="sourcePoint" />
            <mxPoint x="400" y="410" as="targetPoint" />
          </mxGeometry>
        </mxCell>
        <mxCell id="AdHgcvFWVIwuHT3nMgFi-247" value="" style="endArrow=classic;html=1;rounded=0;entryX=1;entryY=0;entryDx=0;entryDy=0;exitX=0;exitY=0;exitDx=0;exitDy=0;" parent="1" source="AdHgcvFWVIwuHT3nMgFi-227" target="AdHgcvFWVIwuHT3nMgFi-227" edge="1">
          <mxGeometry width="50" height="50" relative="1" as="geometry">
            <mxPoint x="320" y="318" as="sourcePoint" />
            <mxPoint x="356" y="318" as="targetPoint" />
            <Array as="points">
              <mxPoint x="326" y="300" />
            </Array>
          </mxGeometry>
        </mxCell>
        <mxCell id="AdHgcvFWVIwuHT3nMgFi-248" value="0,0/R" style="text;html=1;align=center;verticalAlign=middle;whiteSpace=wrap;rounded=0;" parent="1" vertex="1">
          <mxGeometry x="299" y="274" width="60" height="30.967741935483872" as="geometry" />
        </mxCell>
        <mxCell id="AdHgcvFWVIwuHT3nMgFi-249" value="C,C/L" style="text;html=1;align=center;verticalAlign=middle;whiteSpace=wrap;rounded=0;" parent="1" vertex="1">
          <mxGeometry x="359" y="340" width="60" height="32" as="geometry" />
        </mxCell>
        <mxCell id="AdHgcvFWVIwuHT3nMgFi-250" value="" style="endArrow=classic;html=1;rounded=0;exitX=1;exitY=0.5;exitDx=0;exitDy=0;entryX=0;entryY=0.5;entryDx=0;entryDy=0;" parent="1" source="AdHgcvFWVIwuHT3nMgFi-244" target="AdHgcvFWVIwuHT3nMgFi-226" edge="1">
          <mxGeometry width="50" height="50" relative="1" as="geometry">
            <mxPoint x="380" y="220" as="sourcePoint" />
            <mxPoint x="430" y="170" as="targetPoint" />
          </mxGeometry>
        </mxCell>
        <mxCell id="AdHgcvFWVIwuHT3nMgFi-251" value="0,X/L" style="text;html=1;align=center;verticalAlign=middle;whiteSpace=wrap;rounded=0;" parent="1" vertex="1">
          <mxGeometry x="490" y="340" width="60" height="32" as="geometry" />
        </mxCell>
        <mxCell id="AdHgcvFWVIwuHT3nMgFi-252" value="" style="endArrow=classic;html=1;rounded=0;exitX=0.5;exitY=1;exitDx=0;exitDy=0;entryX=0.5;entryY=0;entryDx=0;entryDy=0;" parent="1" source="AdHgcvFWVIwuHT3nMgFi-244" target="AdHgcvFWVIwuHT3nMgFi-218" edge="1">
          <mxGeometry width="50" height="50" relative="1" as="geometry">
            <mxPoint x="380" y="350" as="sourcePoint" />
            <mxPoint x="430" y="300" as="targetPoint" />
          </mxGeometry>
        </mxCell>
        <mxCell id="AdHgcvFWVIwuHT3nMgFi-253" value="C,C/R" style="text;html=1;align=center;verticalAlign=middle;whiteSpace=wrap;rounded=0;" parent="1" vertex="1">
          <mxGeometry x="446" y="420" width="60" height="32" as="geometry" />
        </mxCell>
        <mxCell id="AdHgcvFWVIwuHT3nMgFi-254" value="" style="endArrow=classic;html=1;rounded=0;entryX=0.833;entryY=0.222;entryDx=0;entryDy=0;exitX=0;exitY=0;exitDx=0;exitDy=0;entryPerimeter=0;" parent="1" source="AdHgcvFWVIwuHT3nMgFi-226" target="AdHgcvFWVIwuHT3nMgFi-226" edge="1">
          <mxGeometry width="50" height="50" relative="1" as="geometry">
            <mxPoint x="560" y="316" as="sourcePoint" />
            <mxPoint x="598" y="316" as="targetPoint" />
            <Array as="points">
              <mxPoint x="579" y="290" />
            </Array>
          </mxGeometry>
        </mxCell>
        <mxCell id="AdHgcvFWVIwuHT3nMgFi-255" value="0,0/L" style="text;html=1;align=center;verticalAlign=middle;whiteSpace=wrap;rounded=0;" parent="1" vertex="1">
          <mxGeometry x="550" y="267" width="60" height="30.967741935483872" as="geometry" />
        </mxCell>
        <mxCell id="AdHgcvFWVIwuHT3nMgFi-256" value="" style="endArrow=classic;html=1;rounded=0;exitX=1;exitY=0.5;exitDx=0;exitDy=0;entryX=0;entryY=0.5;entryDx=0;entryDy=0;" parent="1" source="AdHgcvFWVIwuHT3nMgFi-226" target="AdHgcvFWVIwuHT3nMgFi-225" edge="1">
          <mxGeometry width="50" height="50" relative="1" as="geometry">
            <mxPoint x="500" y="350" as="sourcePoint" />
            <mxPoint x="550" y="300" as="targetPoint" />
          </mxGeometry>
        </mxCell>
        <mxCell id="AdHgcvFWVIwuHT3nMgFi-257" value="C,C/L" style="text;html=1;align=center;verticalAlign=middle;whiteSpace=wrap;rounded=0;" parent="1" vertex="1">
          <mxGeometry x="615" y="342" width="60" height="32" as="geometry" />
        </mxCell>
        <mxCell id="AdHgcvFWVIwuHT3nMgFi-258" value="" style="endArrow=classic;html=1;rounded=0;exitX=1;exitY=0.5;exitDx=0;exitDy=0;entryX=0;entryY=0.5;entryDx=0;entryDy=0;" parent="1" source="AdHgcvFWVIwuHT3nMgFi-225" target="AdHgcvFWVIwuHT3nMgFi-224" edge="1">
          <mxGeometry width="50" height="50" relative="1" as="geometry">
            <mxPoint x="720" y="460" as="sourcePoint" />
            <mxPoint x="770" y="410" as="targetPoint" />
          </mxGeometry>
        </mxCell>
        <mxCell id="AdHgcvFWVIwuHT3nMgFi-259" value="Y,Y/L" style="text;html=1;align=center;verticalAlign=middle;whiteSpace=wrap;rounded=0;" parent="1" vertex="1">
          <mxGeometry x="679" y="266" width="60" height="32" as="geometry" />
        </mxCell>
        <mxCell id="AdHgcvFWVIwuHT3nMgFi-260" value="" style="endArrow=classic;html=1;rounded=0;entryX=1;entryY=0;entryDx=0;entryDy=0;exitX=0;exitY=0;exitDx=0;exitDy=0;" parent="1" source="AdHgcvFWVIwuHT3nMgFi-225" target="AdHgcvFWVIwuHT3nMgFi-225" edge="1">
          <mxGeometry width="50" height="50" relative="1" as="geometry">
            <mxPoint x="693.5" y="314" as="sourcePoint" />
            <mxPoint x="730.5" y="318" as="targetPoint" />
            <Array as="points">
              <mxPoint x="710" y="290" />
            </Array>
          </mxGeometry>
        </mxCell>
        <mxCell id="AdHgcvFWVIwuHT3nMgFi-262" value="0,Y/R" style="text;html=1;align=center;verticalAlign=middle;whiteSpace=wrap;rounded=0;" parent="1" vertex="1">
          <mxGeometry x="750" y="341" width="60" height="32" as="geometry" />
        </mxCell>
        <mxCell id="AdHgcvFWVIwuHT3nMgFi-264" value="" style="endArrow=classic;html=1;rounded=0;exitX=0.5;exitY=1;exitDx=0;exitDy=0;" parent="1" source="AdHgcvFWVIwuHT3nMgFi-225" target="AdHgcvFWVIwuHT3nMgFi-231" edge="1">
          <mxGeometry width="50" height="50" relative="1" as="geometry">
            <mxPoint x="600" y="350" as="sourcePoint" />
            <mxPoint x="650" y="300" as="targetPoint" />
          </mxGeometry>
        </mxCell>
        <mxCell id="AdHgcvFWVIwuHT3nMgFi-265" value="B,B/R" style="text;html=1;align=center;verticalAlign=middle;whiteSpace=wrap;rounded=0;" parent="1" vertex="1">
          <mxGeometry x="660" y="448" width="60" height="32" as="geometry" />
        </mxCell>
        <mxCell id="AdHgcvFWVIwuHT3nMgFi-267" value="" style="endArrow=classic;html=1;rounded=0;exitX=1;exitY=0;exitDx=0;exitDy=0;entryX=1;entryY=1;entryDx=0;entryDy=0;" parent="1" source="AdHgcvFWVIwuHT3nMgFi-224" target="AdHgcvFWVIwuHT3nMgFi-224" edge="1">
          <mxGeometry width="50" height="50" relative="1" as="geometry">
            <mxPoint x="880" y="327" as="sourcePoint" />
            <mxPoint x="880" y="363" as="targetPoint" />
            <Array as="points">
              <mxPoint x="921" y="347" />
            </Array>
          </mxGeometry>
        </mxCell>
        <mxCell id="AdHgcvFWVIwuHT3nMgFi-268" value="Y,Y/R" style="text;html=1;align=center;verticalAlign=middle;whiteSpace=wrap;rounded=0;" parent="1" vertex="1">
          <mxGeometry x="920" y="330" width="60" height="32" as="geometry" />
        </mxCell>
        <mxCell id="AdHgcvFWVIwuHT3nMgFi-269" value="" style="endArrow=classic;html=1;rounded=0;exitX=0.5;exitY=1;exitDx=0;exitDy=0;entryX=0.5;entryY=0;entryDx=0;entryDy=0;" parent="1" source="AdHgcvFWVIwuHT3nMgFi-224" target="AdHgcvFWVIwuHT3nMgFi-223" edge="1">
          <mxGeometry width="50" height="50" relative="1" as="geometry">
            <mxPoint x="940" y="480" as="sourcePoint" />
            <mxPoint x="980" y="430" as="targetPoint" />
          </mxGeometry>
        </mxCell>
        <mxCell id="AdHgcvFWVIwuHT3nMgFi-270" value="C,C/R" style="text;html=1;align=center;verticalAlign=middle;whiteSpace=wrap;rounded=0;" parent="1" vertex="1">
          <mxGeometry x="855" y="448" width="60" height="32" as="geometry" />
        </mxCell>
        <mxCell id="AdHgcvFWVIwuHT3nMgFi-272" value="" style="endArrow=classic;html=1;rounded=0;exitX=1;exitY=0;exitDx=0;exitDy=0;entryX=1;entryY=1;entryDx=0;entryDy=0;" parent="1" source="AdHgcvFWVIwuHT3nMgFi-223" target="AdHgcvFWVIwuHT3nMgFi-223" edge="1">
          <mxGeometry width="50" height="50" relative="1" as="geometry">
            <mxPoint x="883" y="488" as="sourcePoint" />
            <mxPoint x="883" y="526" as="targetPoint" />
            <Array as="points">
              <mxPoint x="920" y="508" />
            </Array>
          </mxGeometry>
        </mxCell>
        <mxCell id="AdHgcvFWVIwuHT3nMgFi-273" value="0,0/R" style="text;html=1;align=center;verticalAlign=middle;whiteSpace=wrap;rounded=0;" parent="1" vertex="1">
          <mxGeometry x="920" y="492" width="60" height="32" as="geometry" />
        </mxCell>
        <mxCell id="AdHgcvFWVIwuHT3nMgFi-274" value="" style="endArrow=classic;html=1;rounded=0;exitX=0;exitY=0;exitDx=0;exitDy=0;entryX=1;entryY=1;entryDx=0;entryDy=0;" parent="1" edge="1">
          <mxGeometry width="50" height="50" relative="1" as="geometry">
            <mxPoint x="836.9081169079664" y="486.9081169079668" as="sourcePoint" />
            <mxPoint x="471.09188309203364" y="363.0918830920341" as="targetPoint" />
            <Array as="points">
              <mxPoint x="780" y="429" />
              <mxPoint x="550" y="429" />
            </Array>
          </mxGeometry>
        </mxCell>
        <mxCell id="AdHgcvFWVIwuHT3nMgFi-275" value="X,X/L" style="text;html=1;align=center;verticalAlign=middle;whiteSpace=wrap;rounded=0;" parent="1" vertex="1">
          <mxGeometry x="590" y="400" width="60" height="32" as="geometry" />
        </mxCell>
        <mxCell id="AdHgcvFWVIwuHT3nMgFi-276" value="" style="endArrow=classic;html=1;rounded=0;exitX=1;exitY=0;exitDx=0;exitDy=0;entryX=1;entryY=1;entryDx=0;entryDy=0;" parent="1" source="AdHgcvFWVIwuHT3nMgFi-218" target="AdHgcvFWVIwuHT3nMgFi-218" edge="1">
          <mxGeometry width="50" height="50" relative="1" as="geometry">
            <mxPoint x="475" y="480" as="sourcePoint" />
            <mxPoint x="490" y="520" as="targetPoint" />
            <Array as="points">
              <mxPoint x="510" y="500" />
            </Array>
          </mxGeometry>
        </mxCell>
        <mxCell id="AdHgcvFWVIwuHT3nMgFi-277" value="X,0/R" style="text;html=1;align=center;verticalAlign=middle;whiteSpace=wrap;rounded=0;" parent="1" vertex="1">
          <mxGeometry x="506" y="485" width="60" height="32" as="geometry" />
        </mxCell>
        <mxCell id="AdHgcvFWVIwuHT3nMgFi-278" value="" style="endArrow=classic;html=1;rounded=0;exitX=0;exitY=0.5;exitDx=0;exitDy=0;entryX=1;entryY=0.5;entryDx=0;entryDy=0;" parent="1" source="AdHgcvFWVIwuHT3nMgFi-218" target="AdHgcvFWVIwuHT3nMgFi-229" edge="1">
          <mxGeometry width="50" height="50" relative="1" as="geometry">
            <mxPoint x="410" y="580" as="sourcePoint" />
            <mxPoint x="460" y="530" as="targetPoint" />
          </mxGeometry>
        </mxCell>
        <mxCell id="AdHgcvFWVIwuHT3nMgFi-279" value="C,C/R" style="text;html=1;align=center;verticalAlign=middle;whiteSpace=wrap;rounded=0;" parent="1" vertex="1">
          <mxGeometry x="362" y="492" width="60" height="32" as="geometry" />
        </mxCell>
        <mxCell id="AdHgcvFWVIwuHT3nMgFi-280" value="" style="endArrow=classic;html=1;rounded=0;entryX=1;entryY=0;entryDx=0;entryDy=0;exitX=0;exitY=0;exitDx=0;exitDy=0;" parent="1" edge="1">
          <mxGeometry width="50" height="50" relative="1" as="geometry">
            <mxPoint x="307" y="479" as="sourcePoint" />
            <mxPoint x="345" y="479" as="targetPoint" />
            <Array as="points">
              <mxPoint x="326" y="453" />
            </Array>
          </mxGeometry>
        </mxCell>
        <mxCell id="AdHgcvFWVIwuHT3nMgFi-281" value="0,0/R" style="text;html=1;align=center;verticalAlign=middle;whiteSpace=wrap;rounded=0;" parent="1" vertex="1">
          <mxGeometry x="299" y="428" width="60" height="30.967741935483872" as="geometry" />
        </mxCell>
        <mxCell id="AdHgcvFWVIwuHT3nMgFi-282" value="" style="endArrow=classic;html=1;rounded=0;exitX=0;exitY=0.5;exitDx=0;exitDy=0;entryX=1;entryY=0.5;entryDx=0;entryDy=0;" parent="1" source="AdHgcvFWVIwuHT3nMgFi-229" target="AdHgcvFWVIwuHT3nMgFi-230" edge="1">
          <mxGeometry width="50" height="50" relative="1" as="geometry">
            <mxPoint x="260" y="610" as="sourcePoint" />
            <mxPoint x="310" y="560" as="targetPoint" />
          </mxGeometry>
        </mxCell>
        <mxCell id="AdHgcvFWVIwuHT3nMgFi-283" value="B,0/L" style="text;html=1;align=center;verticalAlign=middle;whiteSpace=wrap;rounded=0;" parent="1" vertex="1">
          <mxGeometry x="228" y="492" width="60" height="32" as="geometry" />
        </mxCell>
        <mxCell id="AdHgcvFWVIwuHT3nMgFi-284" value="" style="endArrow=classic;html=1;rounded=0;exitX=0;exitY=0;exitDx=0;exitDy=0;entryX=0;entryY=1;entryDx=0;entryDy=0;" parent="1" source="AdHgcvFWVIwuHT3nMgFi-230" target="AdHgcvFWVIwuHT3nMgFi-230" edge="1">
          <mxGeometry width="50" height="50" relative="1" as="geometry">
            <mxPoint x="98" y="470" as="sourcePoint" />
            <mxPoint x="98" y="508" as="targetPoint" />
            <Array as="points">
              <mxPoint x="137" y="492" />
            </Array>
          </mxGeometry>
        </mxCell>
        <mxCell id="AdHgcvFWVIwuHT3nMgFi-285" value="0,0/L" style="text;html=1;align=center;verticalAlign=middle;whiteSpace=wrap;rounded=0;" parent="1" vertex="1">
          <mxGeometry x="89" y="476" width="60" height="32" as="geometry" />
        </mxCell>
        <mxCell id="AdHgcvFWVIwuHT3nMgFi-286" value="" style="endArrow=classic;html=1;rounded=0;exitX=0.5;exitY=0;exitDx=0;exitDy=0;entryX=0;entryY=1;entryDx=0;entryDy=0;" parent="1" edge="1">
          <mxGeometry width="50" height="50" relative="1" as="geometry">
            <mxPoint x="190.9999999999999" y="468" as="sourcePoint" />
            <mxPoint x="431.9081169079666" y="362.09188309203364" as="targetPoint" />
            <Array as="points">
              <mxPoint x="190" y="410" />
              <mxPoint x="399" y="408" />
            </Array>
          </mxGeometry>
        </mxCell>
        <mxCell id="AdHgcvFWVIwuHT3nMgFi-287" value="C,C/L" style="text;html=1;align=center;verticalAlign=middle;whiteSpace=wrap;rounded=0;" parent="1" vertex="1">
          <mxGeometry x="140" y="410" width="60" height="30.967741935483872" as="geometry" />
        </mxCell>
        <mxCell id="AdHgcvFWVIwuHT3nMgFi-288" value="" style="endArrow=classic;html=1;rounded=0;exitX=1;exitY=1;exitDx=0;exitDy=0;entryX=0;entryY=1;entryDx=0;entryDy=0;" parent="1" source="AdHgcvFWVIwuHT3nMgFi-231" target="AdHgcvFWVIwuHT3nMgFi-231" edge="1">
          <mxGeometry width="50" height="50" relative="1" as="geometry">
            <mxPoint x="726" y="580" as="sourcePoint" />
            <mxPoint x="726" y="618" as="targetPoint" />
            <Array as="points">
              <mxPoint x="712" y="560" />
            </Array>
          </mxGeometry>
        </mxCell>
        <mxCell id="AdHgcvFWVIwuHT3nMgFi-289" value="Y,B/R" style="text;html=1;align=center;verticalAlign=middle;whiteSpace=wrap;rounded=0;" parent="1" vertex="1">
          <mxGeometry x="700" y="560" width="60" height="32" as="geometry" />
        </mxCell>
        <mxCell id="AdHgcvFWVIwuHT3nMgFi-290" value="" style="endArrow=classic;html=1;rounded=0;exitX=0;exitY=0.5;exitDx=0;exitDy=0;entryX=1;entryY=0;entryDx=0;entryDy=0;" parent="1" source="AdHgcvFWVIwuHT3nMgFi-231" target="AdHgcvFWVIwuHT3nMgFi-232" edge="1">
          <mxGeometry width="50" height="50" relative="1" as="geometry">
            <mxPoint x="790" y="680" as="sourcePoint" />
            <mxPoint x="840" y="630" as="targetPoint" />
          </mxGeometry>
        </mxCell>
        <mxCell id="AdHgcvFWVIwuHT3nMgFi-291" value="C,B/R" style="text;html=1;align=center;verticalAlign=middle;whiteSpace=wrap;rounded=0;" parent="1" vertex="1">
          <mxGeometry x="580" y="528" width="60" height="32" as="geometry" />
        </mxCell>
        <mxCell id="AdHgcvFWVIwuHT3nMgFi-292" value="" style="endArrow=classic;html=1;rounded=0;exitX=1;exitY=1;exitDx=0;exitDy=0;entryX=0;entryY=1;entryDx=0;entryDy=0;" parent="1" source="AdHgcvFWVIwuHT3nMgFi-232" target="AdHgcvFWVIwuHT3nMgFi-232" edge="1">
          <mxGeometry width="50" height="50" relative="1" as="geometry">
            <mxPoint x="610" y="630" as="sourcePoint" />
            <mxPoint x="572" y="630" as="targetPoint" />
            <Array as="points">
              <mxPoint x="591" y="664" />
            </Array>
          </mxGeometry>
        </mxCell>
        <mxCell id="AdHgcvFWVIwuHT3nMgFi-293" value="0,B/R" style="text;html=1;align=center;verticalAlign=middle;whiteSpace=wrap;rounded=0;" parent="1" vertex="1">
          <mxGeometry x="563" y="660" width="60" height="32" as="geometry" />
        </mxCell>
        <mxCell id="AdHgcvFWVIwuHT3nMgFi-294" value="X,B/R" style="text;html=1;align=center;verticalAlign=middle;whiteSpace=wrap;rounded=0;" parent="1" vertex="1">
          <mxGeometry x="562" y="677" width="60" height="32" as="geometry" />
        </mxCell>
        <mxCell id="AdHgcvFWVIwuHT3nMgFi-298" value="" style="group" parent="1" vertex="1" connectable="0">
          <mxGeometry x="368" y="577" width="57" height="57" as="geometry" />
        </mxCell>
        <mxCell id="AdHgcvFWVIwuHT3nMgFi-297" value="" style="ellipse;whiteSpace=wrap;html=1;aspect=fixed;" parent="AdHgcvFWVIwuHT3nMgFi-298" vertex="1">
          <mxGeometry width="57" height="57" as="geometry" />
        </mxCell>
        <mxCell id="AdHgcvFWVIwuHT3nMgFi-233" value="q12" style="ellipse;whiteSpace=wrap;html=1;aspect=fixed;" parent="AdHgcvFWVIwuHT3nMgFi-298" vertex="1">
          <mxGeometry x="4" y="4" width="50" height="50" as="geometry" />
        </mxCell>
        <mxCell id="AdHgcvFWVIwuHT3nMgFi-299" value="" style="endArrow=classic;html=1;rounded=0;exitX=0;exitY=0.5;exitDx=0;exitDy=0;entryX=1;entryY=0.5;entryDx=0;entryDy=0;" parent="1" source="AdHgcvFWVIwuHT3nMgFi-232" target="AdHgcvFWVIwuHT3nMgFi-297" edge="1">
          <mxGeometry width="50" height="50" relative="1" as="geometry">
            <mxPoint x="570" y="760" as="sourcePoint" />
            <mxPoint x="620" y="710" as="targetPoint" />
          </mxGeometry>
        </mxCell>
        <mxCell id="AdHgcvFWVIwuHT3nMgFi-300" value="C,B/R" style="text;html=1;align=center;verticalAlign=middle;whiteSpace=wrap;rounded=0;" parent="1" vertex="1">
          <mxGeometry x="390" y="267" width="60" height="32" as="geometry" />
        </mxCell>
        <mxCell id="OME-Ex4GHvP5pga3rW5q-1" value="B,0/L" style="text;html=1;align=center;verticalAlign=middle;whiteSpace=wrap;rounded=0;" parent="1" vertex="1">
          <mxGeometry x="465" y="-800" width="60" height="30" as="geometry" />
        </mxCell>
        <mxCell id="kYXyMNll0u4poQ4xbb-z-10" value="" style="group" vertex="1" connectable="0" parent="1">
          <mxGeometry x="262" y="-606" width="143" height="126" as="geometry" />
        </mxCell>
        <mxCell id="kYXyMNll0u4poQ4xbb-z-4" value="" style="ellipse;whiteSpace=wrap;html=1;aspect=fixed;" vertex="1" parent="kYXyMNll0u4poQ4xbb-z-10">
          <mxGeometry x="86" y="35" width="54" height="54" as="geometry" />
        </mxCell>
        <mxCell id="kYXyMNll0u4poQ4xbb-z-1" value="" style="endArrow=classic;html=1;rounded=0;entryX=0;entryY=0.5;entryDx=0;entryDy=0;" edge="1" parent="kYXyMNll0u4poQ4xbb-z-10" target="kYXyMNll0u4poQ4xbb-z-2">
          <mxGeometry width="50" height="50" relative="1" as="geometry">
            <mxPoint x="30" y="126" as="sourcePoint" />
            <mxPoint x="70" y="66" as="targetPoint" />
          </mxGeometry>
        </mxCell>
        <mxCell id="kYXyMNll0u4poQ4xbb-z-2" value="q26" style="ellipse;whiteSpace=wrap;html=1;aspect=fixed;" vertex="1" parent="kYXyMNll0u4poQ4xbb-z-10">
          <mxGeometry x="89" y="38" width="48" height="48" as="geometry" />
        </mxCell>
        <mxCell id="kYXyMNll0u4poQ4xbb-z-3" value="Jawaban 1" style="text;html=1;align=center;verticalAlign=middle;whiteSpace=wrap;rounded=0;fillColor=#FF0303;" vertex="1" parent="kYXyMNll0u4poQ4xbb-z-10">
          <mxGeometry x="83" width="60" height="30.967741935483872" as="geometry" />
        </mxCell>
        <mxCell id="kYXyMNll0u4poQ4xbb-z-6" value="&lt;div&gt;Soal 1&lt;/div&gt;Pangkat 0&amp;nbsp;" style="text;html=1;align=center;verticalAlign=middle;whiteSpace=wrap;rounded=0;fillColor=#FF0A0A;" vertex="1" parent="kYXyMNll0u4poQ4xbb-z-10">
          <mxGeometry y="61.03" width="60" height="30.967741935483872" as="geometry" />
        </mxCell>
        <mxCell id="kYXyMNll0u4poQ4xbb-z-20" value="" style="endArrow=classic;html=1;rounded=0;exitX=1;exitY=0;exitDx=0;exitDy=0;entryX=0;entryY=0.5;entryDx=0;entryDy=0;" edge="1" parent="1" source="AdHgcvFWVIwuHT3nMgFi-227" target="kYXyMNll0u4poQ4xbb-z-21">
          <mxGeometry width="50" height="50" relative="1" as="geometry">
            <mxPoint x="353" y="297.97" as="sourcePoint" />
            <mxPoint x="460" y="230" as="targetPoint" />
          </mxGeometry>
        </mxCell>
        <mxCell id="kYXyMNll0u4poQ4xbb-z-22" value="" style="group" vertex="1" connectable="0" parent="1">
          <mxGeometry x="438" y="212" width="54" height="54" as="geometry" />
        </mxCell>
        <mxCell id="kYXyMNll0u4poQ4xbb-z-21" value="" style="ellipse;whiteSpace=wrap;html=1;aspect=fixed;" vertex="1" parent="kYXyMNll0u4poQ4xbb-z-22">
          <mxGeometry width="54" height="54" as="geometry" />
        </mxCell>
        <mxCell id="kYXyMNll0u4poQ4xbb-z-19" value="q13" style="ellipse;whiteSpace=wrap;html=1;aspect=fixed;" vertex="1" parent="kYXyMNll0u4poQ4xbb-z-22">
          <mxGeometry x="5" y="5" width="44" height="44" as="geometry" />
        </mxCell>
        <mxCell id="kYXyMNll0u4poQ4xbb-z-23" value="Jawaban TAK HINGGA" style="text;html=1;align=center;verticalAlign=middle;whiteSpace=wrap;rounded=0;fillColor=#FF0303;" vertex="1" parent="1">
          <mxGeometry x="430" y="174" width="80" height="30.97" as="geometry" />
        </mxCell>
        <mxCell id="kYXyMNll0u4poQ4xbb-z-24" value="SOAL_5&lt;div&gt;b = 0&lt;/div&gt;" style="text;html=1;align=center;verticalAlign=middle;whiteSpace=wrap;rounded=0;fillColor=#FF0303;" vertex="1" parent="1">
          <mxGeometry x="325" y="243.03" width="80" height="30.97" as="geometry" />
        </mxCell>
      </root>
    </mxGraphModel>
  </diagram>
</mxfile>
